<?xml version="1.0" encoding="utf-8"?>
<COLLADA xmlns="http://www.collada.org/2005/11/COLLADASchema" version="1.4.1" xmlns:xsi="http://www.w3.org/2001/XMLSchema-instance">
  <asset>
    <contributor>
      <author>Blender User</author>
      <authoring_tool>Blender 4.0.2 commit date:2023-12-05, commit time:07:41, hash:9be62e85b727</authoring_tool>
    </contributor>
    <created>2024-05-03T11:45:08</created>
    <modified>2024-05-03T11:45:08</modified>
    <unit name="meter" meter="1"/>
    <up_axis>Z_UP</up_axis>
  </asset>
  <library_effects>
    <effect id="Metal_017-effect">
      <profile_COMMON>
        <technique sid="common">
          <lambert>
            <emission>
              <color sid="emission">0 0 0 1</color>
            </emission>
            <diffuse>
              <color sid="diffuse">0.8 0.8 0.8 1</color>
            </diffuse>
            <index_of_refraction>
              <float sid="ior">1.45</float>
            </index_of_refraction>
          </lambert>
        </technique>
      </profile_COMMON>
    </effect>
    <effect id="sagdonusyasak-effect">
      <profile_COMMON>
        <newparam sid="saga_donusx_png-surface">
          <surface type="2D">
            <init_from>saga_donusx_png</init_from>
          </surface>
        </newparam>
        <newparam sid="saga_donusx_png-sampler">
          <sampler2D>
            <source>saga_donusx_png-surface</source>
          </sampler2D>
        </newparam>
        <technique sid="common">
          <lambert>
            <emission>
              <color sid="emission">0 0 0 1</color>
            </emission>
            <diffuse>
              <texture texture="saga_donusx_png-sampler" texcoord="Mesh_004-mesh-map-0"/>
            </diffuse>
            <index_of_refraction>
              <float sid="ior">1.45</float>
            </index_of_refraction>
          </lambert>
        </technique>
      </profile_COMMON>
    </effect>
    <effect id="SmallPart_017-effect">
      <profile_COMMON>
        <technique sid="common">
          <lambert>
            <emission>
              <color sid="emission">0 0 0 1</color>
            </emission>
            <diffuse>
              <color sid="diffuse">0.8 0.8 0.8 1</color>
            </diffuse>
            <index_of_refraction>
              <float sid="ior">1.45</float>
            </index_of_refraction>
          </lambert>
        </technique>
      </profile_COMMON>
    </effect>
  </library_effects>
  <library_images>
    <image id="saga_donusx_png" name="saga_donusx_png">
      <init_from>saga_donusx.png</init_from>
    </image>
  </library_images>
  <library_materials>
    <material id="Metal_017-material" name="Metal.017">
      <instance_effect url="#Metal_017-effect"/>
    </material>
    <material id="sagdonusyasak-material" name="sagdonusyasak">
      <instance_effect url="#sagdonusyasak-effect"/>
    </material>
    <material id="SmallPart_017-material" name="SmallPart.017">
      <instance_effect url="#SmallPart_017-effect"/>
    </material>
  </library_materials>
  <library_geometries>
    <geometry id="Mesh_017-mesh" name="Mesh.017">
      <mesh>
        <source id="Mesh_017-mesh-positions">
          <float_array id="Mesh_017-mesh-positions-array" count="192">-3.799577 9.231774 0.1243736 -3.947757 9.45354 0.124373 -4.169524 9.60172 0.1243725 -4.431117 9.653757 0.1243723 -4.692709 9.60172 0.1243725 -4.914476 9.453542 0.124373 -5.062657 9.231776 0.1243736 -5.114691 8.97018 0.1243745 -5.062657 8.708589 0.1243753 -4.914477 8.486822 0.1243759 -4.69271 8.338643 0.1243764 -4.431118 8.286607 0.1243766 -4.169525 8.338643 0.1243764 -3.947757 8.486822 0.1243759 -3.799577 8.708589 0.1243753 -3.747543 8.97018 0.1243745 -3.49237 9.388409 0.4306005 -3.721606 9.714877 0.4305966 -4.058854 9.927969 0.4305939 -4.452779 9.995248 0.4305928 -4.843406 9.906469 0.4305934 -5.171265 9.675154 0.4305958 -5.386443 9.33651 0.4305994 -5.456181 8.942093 0.4306038 -5.369864 8.55196 0.4306081 -5.140632 8.225489 0.4306119 -4.803383 8.012397 0.4306144 -4.409455 7.945121 0.4306156 -4.01883 8.033898 0.4306149 -3.69097 8.265215 0.4306126 -3.475792 8.60386 0.4306092 -3.406053 8.998271 0.4306047 -4.431118 8.97018 0.1243745 -4.431118 8.970183 0.4306042 -4.909511 9.149435 0.1044742 -4.774625 9.149435 0.1044742 -4.63974 9.149435 0.1044742 -4.504854 9.149435 -0.1905004 -4.369969 9.149435 -0.1905004 -4.235084 9.149435 0.1044742 -4.100198 9.149435 0.1044742 -3.965312 9.149435 0.1044742 -4.909511 8.781331 0.1044744 -4.774625 8.781331 0.1044744 -4.63974 8.781331 0.1044744 -4.504854 8.781331 -0.1905003 -4.369969 8.781331 -0.1905003 -4.235084 8.781331 0.1044744 -4.100198 8.781331 0.1044744 -3.965312 8.781331 0.1044744 -4.365285 1.357328 -0.1732019 -4.509538 1.357328 -0.173202 -4.581664 1.357328 3.05474e-6 -4.509538 1.357328 0.1732081 -4.365285 1.357328 0.1732081 -4.293159 1.357328 3.08454e-6 -4.365285 9.643165 -0.173206 -4.509538 9.643165 -0.173206 -4.581664 9.643165 -9.83477e-7 -4.509538 9.643165 0.1732041 -4.365285 9.643165 0.1732041 -4.293159 9.643165 -9.53674e-7 -4.437412 1.357328 3.08454e-6 -4.437412 9.643165 -9.53674e-7</float_array>
          <technique_common>
            <accessor source="#Mesh_017-mesh-positions-array" count="64" stride="3">
              <param name="X" type="float"/>
              <param name="Y" type="float"/>
              <param name="Z" type="float"/>
            </accessor>
          </technique_common>
        </source>
        <source id="Mesh_017-mesh-normals">
          <float_array id="Mesh_017-mesh-normals-array" count="318">-0.6099602 -0.2695866 0.7451655 -0.4682761 -0.4669491 0.7501174 -0.6127811 -0.2519723 0.7490057 -0.4593561 -0.4824077 0.7458383 -0.2533848 -0.6115767 0.7495133 -0.2395408 -0.6228632 0.7447561 4.38947e-4 -0.6642217 0.7475356 0.01746857 -0.6695793 0.7425352 0.2553552 -0.6158472 0.7453362 0.2730904 -0.6141062 0.7404697 0.471929 -0.4726844 0.7442126 0.487393 -0.4638611 0.7397845 0.6159166 -0.2566632 0.7448293 0.6264111 -0.2422656 0.740889 0.665025 -0.001909077 0.7468187 0.6689783 0.01548492 0.7431207 0.6127841 0.2519822 0.7489998 0.6099639 0.2696011 0.7451573 0.4682829 0.4669632 0.7501044 0.4593612 0.4824247 0.7458242 0.2533869 0.6116003 0.7494933 0.2395402 0.6228889 0.7447348 -4.40599e-4 0.6642497 0.7475107 -0.01747131 0.6696083 0.742509 -0.255362 0.6158732 0.7453123 -0.2730953 0.6141331 0.7404455 -0.4719443 0.4727024 0.7441915 -0.4874034 0.4638816 0.7397648 -0.6159279 0.2566761 0.7448157 -0.6264164 0.2422832 0.7408788 -0.6650291 0.001919865 0.746815 -0.6689788 -0.01546746 0.7431206 -2.08329e-7 -2.87846e-6 -1 0 -3.19572e-6 -1 1.66662e-7 -3.21533e-6 -1 -1.66663e-7 -3.21532e-6 -1 0 -3.19573e-6 -1 2.08328e-7 -2.87844e-6 -1 0 -3.44625e-6 -1 0 -3.04755e-6 -1 0 -2.79202e-6 -1 1.66664e-7 -3.0865e-6 -1 0 -3.07364e-6 -1 -1.66663e-7 -3.07365e-6 -1 -1.66664e-7 -3.08652e-6 -1 0 -2.79201e-6 -1 0 -3.04755e-6 -1 0 -3.44624e-6 -1 7.97881e-7 -4.94558e-7 -1 -0.9231581 -2.09612e-7 -0.3844208 -0.9231581 1.84643e-7 0.3844208 0 4.81972e-7 1 0.9231581 1.89716e-7 0.3844208 0.923158 -2.40668e-7 -0.3844208 0 1 5.96394e-7 0 1 -5.964e-7 0 1 0 0 1 -5.96394e-7 0 -1 4.77115e-6 0 -1 0 0 -1 4.7712e-6 0 -1 -4.77115e-6 0 -4.83768e-7 -1 -0.9231581 -1.53363e-7 -0.3844209 -0.9231581 2.30044e-7 0.3844208 0 4.81966e-7 1 0.9231581 1.53362e-7 0.3844208 0.9231581 -1.53363e-7 -0.3844209 -1.18515e-6 1.1179e-5 1 -1.03702e-6 1.12302e-5 1 -7.40721e-7 1.10918e-5 1 -1.03701e-6 1.10835e-5 1 -4.44436e-7 1.12893e-5 1 -8.8887e-7 1.10737e-5 1 -7.12941e-7 1.12389e-5 1 -7.40732e-7 1.09898e-5 1 -7.4072e-7 1.09857e-5 1 -7.40726e-7 1.09399e-5 1 -1.18515e-6 1.11113e-5 1 -5.92582e-7 1.11221e-5 1 -1.03701e-6 1.09846e-5 1 -9.62938e-7 1.08703e-5 1 -8.19435e-7 1.15481e-5 1 -7.40721e-7 1.06796e-5 1 0 -5.46491e-7 -1 0 -5.46489e-7 -1 -0.7200962 1.71363e-5 -0.6938743 -0.7200965 -2.17894e-5 -0.693874 -0.7200963 0 -0.6938742 0.6192455 -5.64456e-5 -0.7851974 0 -2.83366e-7 -1 0.7200963 2.13087e-6 -0.6938742 0.909428 2.34889e-6 -0.4158615 0 -5.46489e-7 -1 0 -5.46494e-7 -1 -0.7200951 0 -0.6938754 -0.7200949 -1.60702e-5 -0.6938756 -0.7200949 4.30942e-5 -0.6938756 0.6192455 2.28364e-5 -0.7851974 0.6192454 -4.15921e-4 -0.7851974 0 -2.83365e-7 -1 0.7200989 1.50226e-5 -0.6938714 0.7200986 -1.88393e-6 -0.6938718 0.9094296 -1.99689e-6 -0.4158581 0 -5.46491e-7 -1 0 -5.46494e-7 -1</float_array>
          <technique_common>
            <accessor source="#Mesh_017-mesh-normals-array" count="106" stride="3">
              <param name="X" type="float"/>
              <param name="Y" type="float"/>
              <param name="Z" type="float"/>
            </accessor>
          </technique_common>
        </source>
        <source id="Mesh_017-mesh-map-0">
          <float_array id="Mesh_017-mesh-map-0-array" count="612">0.8417162 0.1863104 0.6901672 0.07576 0.6901672 0.1863104 0.8417162 0.07576 0.6901672 0.001892626 0.6901672 0.07576 0.6887745 0.6355254 0.8403236 0.7659283 0.8403236 0.6355254 0.6887745 0.7659283 0.8403236 0.8963313 0.8403236 0.7659283 0.9980081 0.631534 0.8464589 0.5576668 0.8464589 0.631534 0.9980081 0.5576668 0.8464589 0.4471164 0.8464589 0.5576668 0.9980081 0.4471164 0.8464589 0.3167134 0.8464589 0.4471164 0.9980081 0.3167134 0.8464589 0.1863104 0.8464589 0.3167134 0.9980081 0.1863104 0.8464589 0.07576 0.8464589 0.1863104 0.9980081 0.07576 0.8464589 0.001892626 0.8464589 0.07576 0.6826392 0.9482091 0.53109 0.8178061 0.53109 0.9482091 0.6826392 0.8178061 0.53109 0.6874031 0.53109 0.8178061 0.8417162 0.631534 0.6901672 0.5576666 0.6901672 0.631534 0.8417162 0.5576666 0.6901672 0.4471163 0.6901672 0.5576666 0.8417162 0.4471163 0.6901672 0.3167132 0.6901672 0.4471163 0.8417162 0.3167132 0.6901672 0.1863104 0.6901672 0.3167132 0.583705 0.1016989 0.6575723 0.2122493 0.3427515 0.3426522 0.4731547 0.02783149 0.583705 0.1016989 0.3427515 0.3426522 0.3427517 0.001892626 0.4731547 0.02783149 0.3427515 0.3426522 0.2123486 0.02783137 0.3427517 0.001892626 0.3427515 0.3426522 0.1017982 0.1016986 0.2123486 0.02783137 0.3427515 0.3426522 0.02793085 0.212249 0.1017982 0.1016986 0.3427515 0.3426522 0.001991987 0.342652 0.02793085 0.212249 0.3427515 0.3426522 0.02793061 0.473055 0.001991987 0.342652 0.3427515 0.3426522 0.1017981 0.5836054 0.02793061 0.473055 0.3427515 0.3426522 0.2123484 0.6574728 0.1017981 0.5836054 0.3427515 0.3426522 0.3427515 0.6834116 0.2123484 0.6574728 0.3427515 0.3426522 0.4731545 0.6574729 0.3427515 0.6834116 0.3427515 0.3426522 0.5837048 0.5836055 0.4731545 0.6574729 0.3427515 0.3426522 0.6575722 0.4730552 0.5837048 0.5836055 0.3427515 0.3426522 0.6835111 0.3426522 0.6575722 0.4730552 0.3427515 0.3426522 0.6575723 0.2122493 0.6835111 0.3426522 0.3427515 0.3426522 1.666698 -2.555556 1.333365 3.555556 1.333365 -2.555556 3.17991e-5 -2.555556 -0.3333016 3.555556 -0.3333016 -2.555556 0.3333652 -2.555556 3.17991e-5 3.555556 3.17991e-5 -2.555556 0.6666985 -2.555556 0.3333652 3.555556 0.3333652 -2.555556 1.000032 -2.555556 0.6666985 3.555556 0.6666985 -2.555556 1.333365 -2.555556 1.000032 3.555556 1.000032 -2.555556 1.666698 -2.555556 0.4999682 -2.555556 1.333365 -2.555556 3.17991e-5 -2.555556 0.4999682 -2.555556 -0.3333016 -2.555556 0.3333652 -2.555556 0.4999682 -2.555556 3.17991e-5 -2.555556 0.6666985 -2.555556 0.4999682 -2.555556 0.3333652 -2.555556 1.000032 -2.555556 0.4999682 -2.555556 0.6666985 -2.555556 1.333365 -2.555556 0.4999682 -2.555556 1.000032 -2.555556 1.333365 3.555556 2.499968 3.555556 1.666698 3.555556 -0.3333016 3.555556 0.4999682 3.555556 3.17991e-5 3.555556 3.17991e-5 3.555556 0.4999682 3.555556 0.3333652 3.555556 0.3333652 3.555556 0.4999682 3.555556 0.6666985 3.555556 0.6666985 3.555556 0.4999682 3.555556 1.000032 3.555556 1.000032 3.555556 0.4999682 3.555556 1.333365 3.555556 0.8417162 0.1863104 0.8417162 0.07576 0.6901672 0.07576 0.8417162 0.07576 0.8417162 0.001892626 0.6901672 0.001892626 0.6887745 0.6355254 0.6887745 0.7659283 0.8403236 0.7659283 0.6887745 0.7659283 0.6887745 0.8963313 0.8403236 0.8963313 0.9980081 0.631534 0.9980081 0.5576668 0.8464589 0.5576668 0.9980081 0.5576668 0.9980081 0.4471164 0.8464589 0.4471164 0.9980081 0.4471164 0.9980081 0.3167134 0.8464589 0.3167134 0.9980081 0.3167134 0.9980081 0.1863104 0.8464589 0.1863104 0.9980081 0.1863104 0.9980081 0.07576 0.8464589 0.07576 0.9980081 0.07576 0.9980081 0.001892626 0.8464589 0.001892626 0.6826392 0.9482091 0.6826392 0.8178061 0.53109 0.8178061 0.6826392 0.8178061 0.6826392 0.6874031 0.53109 0.6874031 0.8417162 0.631534 0.8417162 0.5576666 0.6901672 0.5576666 0.8417162 0.5576666 0.8417162 0.4471163 0.6901672 0.4471163 0.8417162 0.4471163 0.8417162 0.3167132 0.6901672 0.3167132 0.8417162 0.3167132 0.8417162 0.1863104 0.6901672 0.1863104 1.666698 -2.555556 1.666698 3.555556 1.333365 3.555556 3.17991e-5 -2.555556 3.17991e-5 3.555556 -0.3333016 3.555556 0.3333652 -2.555556 0.3333652 3.555556 3.17991e-5 3.555556 0.6666985 -2.555556 0.6666985 3.555556 0.3333652 3.555556 1.000032 -2.555556 1.000032 3.555556 0.6666985 3.555556 1.333365 -2.555556 1.333365 3.555556 1.000032 3.555556 0.9619398 0.6913412 0.8535535 0.8535531 0.5 0.5 0.8535535 0.8535531 0.691342 0.9619396 0.5 0.5 0.691342 0.9619396 0.5000004 1 0.5 0.5 0.5000004 1 0.3086586 0.9619396 0.5 0.5 0.3086586 0.9619396 0.1464467 0.8535538 0.5 0.5 0.1464467 0.8535538 0.03806006 0.6913416 0.5 0.5 0.03806006 0.6913416 0 0.5 0.5 0.5 0 0.5 0.03806006 0.3086586 0.5 0.5 0.03806006 0.3086586 0.1464465 0.1464467 0.5 0.5 0.1464465 0.1464467 0.3086583 0.03806006 0.5 0.5 0.3086583 0.03806006 0.5 0 0.5 0.5 0.5 0 0.6913416 0.03806006 0.5 0.5 0.6913416 0.03806006 0.8535533 0.1464467 0.5 0.5 0.8535533 0.1464467 0.9619398 0.3086581 0.5 0.5 0.9619398 0.3086581 1 0.5 0.5 0.5 1 0.5 0.9619398 0.6913412 0.5 0.5 0.142857 1 0 0 0 1 0.2857143 1 0.142857 0 0.142857 1 0.2857143 1 0.4285715 0 0.2857143 0 0.5714285 1 0.4285715 0 0.4285715 1 0.7142857 1 0.5714285 0 0.5714285 1 0.8571429 1 0.7142857 0 0.7142857 1 1 1 0.8571429 0 0.8571429 1 0.142857 1 0.142857 0 0 0 0.2857143 1 0.2857143 0 0.142857 0 0.2857143 1 0.4285715 1 0.4285715 0 0.5714285 1 0.5714285 0 0.4285715 0 0.7142857 1 0.7142857 0 0.5714285 0 0.8571429 1 0.8571429 0 0.7142857 0 1 1 1 0 0.8571429 0</float_array>
          <technique_common>
            <accessor source="#Mesh_017-mesh-map-0-array" count="306" stride="2">
              <param name="S" type="float"/>
              <param name="T" type="float"/>
            </accessor>
          </technique_common>
        </source>
        <vertices id="Mesh_017-mesh-vertices">
          <input semantic="POSITION" source="#Mesh_017-mesh-positions"/>
        </vertices>
        <triangles material="Metal_017-material" count="72">
          <input semantic="VERTEX" source="#Mesh_017-mesh-vertices" offset="0"/>
          <input semantic="NORMAL" source="#Mesh_017-mesh-normals" offset="1"/>
          <input semantic="TEXCOORD" source="#Mesh_017-mesh-map-0" offset="2" set="0"/>
          <p>16 0 0 1 1 1 0 2 2 17 3 3 2 4 4 1 1 5 18 5 6 3 6 7 2 4 8 19 7 9 4 8 10 3 6 11 20 9 12 5 10 13 4 8 14 21 11 15 6 12 16 5 10 17 22 13 18 7 14 19 6 12 20 23 15 21 8 16 22 7 14 23 24 17 24 9 18 25 8 16 26 25 19 27 10 20 28 9 18 29 26 21 30 11 22 31 10 20 32 27 23 33 12 24 34 11 22 35 28 25 36 13 26 37 12 24 38 29 27 39 14 28 40 13 26 41 30 29 42 15 30 43 14 28 44 31 31 45 0 2 46 15 30 47 1 32 48 0 32 49 32 32 50 2 33 51 1 33 52 32 33 53 3 34 54 2 34 55 32 34 56 4 35 57 3 35 58 32 35 59 5 36 60 4 36 61 32 36 62 6 37 63 5 37 64 32 37 65 7 38 66 6 38 67 32 38 68 8 39 69 7 39 70 32 39 71 9 40 72 8 40 73 32 40 74 10 41 75 9 41 76 32 41 77 11 42 78 10 42 79 32 42 80 12 43 81 11 43 82 32 43 83 13 44 84 12 44 85 32 44 86 14 45 87 13 45 88 32 45 89 15 46 90 14 46 91 32 46 92 0 47 93 15 47 94 32 47 95 51 48 96 56 48 97 50 48 98 52 49 99 57 49 100 51 49 101 53 50 102 58 50 103 52 50 104 54 51 105 59 51 106 53 51 107 55 52 108 60 52 109 54 52 110 50 53 111 61 53 112 55 53 113 51 54 114 62 54 115 50 54 116 52 55 117 62 55 118 51 55 119 53 56 120 62 56 121 52 56 122 54 57 123 62 57 124 53 57 125 55 56 126 62 56 127 54 56 128 50 56 129 62 56 130 55 56 131 56 58 132 63 58 133 57 58 134 57 59 135 63 59 136 58 59 137 58 60 138 63 60 139 59 60 140 59 61 141 63 61 142 60 61 143 60 59 144 63 59 145 61 59 146 61 59 147 63 59 148 56 59 149 16 0 150 17 3 151 1 1 152 17 3 153 18 5 154 2 4 155 18 5 156 19 7 157 3 6 158 19 7 159 20 9 160 4 8 161 20 9 162 21 11 163 5 10 164 21 11 165 22 13 166 6 12 167 22 13 168 23 15 169 7 14 170 23 15 171 24 17 172 8 16 173 24 17 174 25 19 175 9 18 176 25 19 177 26 21 178 10 20 179 26 21 180 27 23 181 11 22 182 27 23 183 28 25 184 12 24 185 28 25 186 29 27 187 13 26 188 29 27 189 30 29 190 14 28 191 30 29 192 31 31 193 15 30 194 31 31 195 16 0 196 0 2 197 51 62 198 57 62 199 56 62 200 52 63 201 58 63 202 57 63 203 53 64 204 59 64 205 58 64 206 54 65 207 60 65 208 59 65 209 55 66 210 61 66 211 60 66 212 50 67 213 56 67 214 61 67 215</p>
        </triangles>
        <triangles material="sagdonusyasak-material" count="16">
          <input semantic="VERTEX" source="#Mesh_017-mesh-vertices" offset="0"/>
          <input semantic="NORMAL" source="#Mesh_017-mesh-normals" offset="1"/>
          <input semantic="TEXCOORD" source="#Mesh_017-mesh-map-0" offset="2" set="0"/>
          <p>16 68 216 17 68 217 33 68 218 17 69 219 18 69 220 33 69 221 18 70 222 19 70 223 33 70 224 19 71 225 20 71 226 33 71 227 20 72 228 21 72 229 33 72 230 21 73 231 22 73 232 33 73 233 22 74 234 23 74 235 33 74 236 23 75 237 24 75 238 33 75 239 24 76 240 25 76 241 33 76 242 25 77 243 26 77 244 33 77 245 26 78 246 27 78 247 33 78 248 27 79 249 28 79 250 33 79 251 28 80 252 29 80 253 33 80 254 29 81 255 30 81 256 33 81 257 30 82 258 31 82 259 33 82 260 31 83 261 16 83 262 33 83 263</p>
        </triangles>
        <triangles material="SmallPart_017-material" count="14">
          <input semantic="VERTEX" source="#Mesh_017-mesh-vertices" offset="0"/>
          <input semantic="NORMAL" source="#Mesh_017-mesh-normals" offset="1"/>
          <input semantic="TEXCOORD" source="#Mesh_017-mesh-map-0" offset="2" set="0"/>
          <p>35 84 264 42 84 265 34 84 266 36 85 267 43 85 268 35 85 269 36 86 270 45 87 271 44 88 272 38 89 273 45 90 274 37 90 275 39 91 276 46 92 277 38 92 278 40 84 279 47 84 280 39 84 281 41 93 282 48 93 283 40 93 284 35 93 285 43 93 286 42 93 287 36 94 288 44 94 289 43 94 290 36 95 291 37 96 292 45 97 293 38 98 294 46 99 295 45 100 296 39 101 297 47 102 298 46 103 299 40 104 300 48 104 301 47 104 302 41 105 303 49 105 304 48 105 305</p>
        </triangles>
      </mesh>
    </geometry>
  </library_geometries>
  <library_visual_scenes>
    <visual_scene id="Scene" name="Scene">
      <node id="Sign_Circle_005" name="Sign_Circle.005" type="NODE">
        <matrix sid="transform">0.3098855 0 0 1.378473 0 2.05454e-8 -0.01 -0.01602232 0 0.2721318 7.54979e-10 -0.3601365 0 0 0 1</matrix>
        <instance_geometry url="#Mesh_017-mesh" name="Sign_Circle.005">
          <bind_material>
            <technique_common>
              <instance_material symbol="Metal_017-material" target="#Metal_017-material">
                <bind_vertex_input semantic="Mesh_004-mesh-map-0" input_semantic="TEXCOORD" input_set="0"/>
              </instance_material>
              <instance_material symbol="sagdonusyasak-material" target="#sagdonusyasak-material">
                <bind_vertex_input semantic="Mesh_004-mesh-map-0" input_semantic="TEXCOORD" input_set="0"/>
              </instance_material>
              <instance_material symbol="SmallPart_017-material" target="#SmallPart_017-material">
                <bind_vertex_input semantic="Mesh_004-mesh-map-0" input_semantic="TEXCOORD" input_set="0"/>
              </instance_material>
            </technique_common>
          </bind_material>
        </instance_geometry>
      </node>
      <node id="transform8_001" name="transform8.001" type="NODE">
        <matrix sid="transform">1 0 0 0 0 1 0 0 0 0 1 0 0 0 0 1</matrix>
      </node>
      <node id="transform9_001" name="transform9.001" type="NODE">
        <matrix sid="transform">1 0 0 0 0 1 0 0 0 0 1 0 0 0 0 1</matrix>
      </node>
      <node id="transform6_001" name="transform6.001" type="NODE">
        <matrix sid="transform">1 0 0 0 0 1 0 0 0 0 1 0 0 0 0 1</matrix>
      </node>
      <node id="transform7_001" name="transform7.001" type="NODE">
        <matrix sid="transform">1 0 0 0 0 1 0 0 0 0 1 0 0 0 0 1</matrix>
      </node>
      <node id="transform2_001" name="transform2.001" type="NODE">
        <matrix sid="transform">1 0 0 0 0 1 0 0 0 0 1 0 0 0 0 1</matrix>
      </node>
      <node id="transform4_001" name="transform4.001" type="NODE">
        <matrix sid="transform">1 0 0 0 0 1 0 0 0 0 1 0 0 0 0 1</matrix>
      </node>
      <node id="transform1_001" name="transform1.001" type="NODE">
        <matrix sid="transform">1 0 0 0 0 1 0 0 0 0 1 0 0 0 0 1</matrix>
      </node>
      <node id="transform3_001" name="transform3.001" type="NODE">
        <matrix sid="transform">1 0 0 0 0 1 0 0 0 0 1 0 0 0 0 1</matrix>
      </node>
      <node id="transform8" name="transform8" type="NODE">
        <matrix sid="transform">1 0 0 0 0 1 0 0 0 0 1 0 0 0 0 1</matrix>
      </node>
      <node id="transform9" name="transform9" type="NODE">
        <matrix sid="transform">1 0 0 0 0 1 0 0 0 0 1 0 0 0 0 1</matrix>
      </node>
      <node id="transform6" name="transform6" type="NODE">
        <matrix sid="transform">1 0 0 0 0 1 0 0 0 0 1 0 0 0 0 1</matrix>
      </node>
      <node id="transform7" name="transform7" type="NODE">
        <matrix sid="transform">1 0 0 0 0 1 0 0 0 0 1 0 0 0 0 1</matrix>
      </node>
      <node id="transform2" name="transform2" type="NODE">
        <matrix sid="transform">1 0 0 0 0 1 0 0 0 0 1 0 0 0 0 1</matrix>
      </node>
      <node id="transform4" name="transform4" type="NODE">
        <matrix sid="transform">1 0 0 0 0 1 0 0 0 0 1 0 0 0 0 1</matrix>
      </node>
      <node id="transform1" name="transform1" type="NODE">
        <matrix sid="transform">1 0 0 0 0 1 0 0 0 0 1 0 0 0 0 1</matrix>
      </node>
      <node id="transform3" name="transform3" type="NODE">
        <matrix sid="transform">1 0 0 0 0 1 0 0 0 0 1 0 0 0 0 1</matrix>
      </node>
    </visual_scene>
  </library_visual_scenes>
  <scene>
    <instance_visual_scene url="#Scene"/>
  </scene>
</COLLADA>