<?xml version="1.0" encoding="utf-8"?>
<COLLADA xmlns="http://www.collada.org/2005/11/COLLADASchema" version="1.4.1" xmlns:xsi="http://www.w3.org/2001/XMLSchema-instance">
  <asset>
    <contributor>
      <author>Blender User</author>
      <authoring_tool>Blender 4.0.2 commit date:2023-12-05, commit time:07:41, hash:9be62e85b727</authoring_tool>
    </contributor>
    <created>2024-02-18T22:17:25</created>
    <modified>2024-02-18T22:17:25</modified>
    <unit name="meter" meter="1"/>
    <up_axis>Z_UP</up_axis>
  </asset>
  <library_lights>
    <light id="Area-light" name="Area">
      <technique_common>
        <point>
          <color sid="color">14925 14925 14925</color>
          <constant_attenuation>1</constant_attenuation>
          <linear_attenuation>0</linear_attenuation>
          <quadratic_attenuation>0</quadratic_attenuation>
        </point>
      </technique_common>
      <extra>
        <technique profile="blender">
          <type sid="type" type="int">4</type>
          <flag sid="flag" type="int">0</flag>
          <mode sid="mode" type="int">1</mode>
          <red sid="red" type="float">1</red>
          <green sid="green" type="float">1</green>
          <blue sid="blue" type="float">1</blue>
          <shadow_r sid="blender_shadow_r" type="float">0</shadow_r>
          <shadow_g sid="blender_shadow_g" type="float">0</shadow_g>
          <shadow_b sid="blender_shadow_b" type="float">0</shadow_b>
          <energy sid="blender_energy" type="float">14925</energy>
          <spotsize sid="spotsize" type="float">45</spotsize>
          <spotblend sid="spotblend" type="float">0.15</spotblend>
          <clipsta sid="clipsta" type="float">0.04999995</clipsta>
          <clipend sid="clipend" type="float">40</clipend>
          <bias sid="bias" type="float">1</bias>
          <radius sid="radius" type="float">0</radius>
          <area_shape sid="area_shape" type="int">0</area_shape>
          <area_size sid="area_size" type="float">1.155974</area_size>
          <area_sizey sid="area_sizey" type="float">1</area_sizey>
          <area_sizez sid="area_sizez" type="float">1</area_sizez>
        </technique>
      </extra>
    </light>
  </library_lights>
  <library_effects>
    <effect id="Material-effect">
      <profile_COMMON>
        <newparam sid="pistimage_png-surface">
          <surface type="2D">
            <init_from>pistimage_png</init_from>
          </surface>
        </newparam>
        <newparam sid="pistimage_png-sampler">
          <sampler2D>
            <source>pistimage_png-surface</source>
          </sampler2D>
        </newparam>
        <technique sid="common">
          <lambert>
            <emission>
              <color sid="emission">0 0 0 1</color>
            </emission>
            <diffuse>
              <texture texture="pistimage_png-sampler" texcoord="UVMap"/>
            </diffuse>
            <index_of_refraction>
              <float sid="ior">1.45</float>
            </index_of_refraction>
          </lambert>
        </technique>
      </profile_COMMON>
    </effect>
    <effect id="Material_001-effect">
      <profile_COMMON>
        <technique sid="common">
          <lambert>
            <emission>
              <color sid="emission">0 0 0 1</color>
            </emission>
            <diffuse>
              <color sid="diffuse">1 0 0 1</color>
            </diffuse>
            <reflectivity>
              <float sid="specular">0.4253731</float>
            </reflectivity>
            <index_of_refraction>
              <float sid="ior">1.45</float>
            </index_of_refraction>
          </lambert>
        </technique>
      </profile_COMMON>
    </effect>
    <effect id="Material_022-effect">
      <profile_COMMON>
        <technique sid="common">
          <lambert>
            <emission>
              <color sid="emission">0 0 0 1</color>
            </emission>
            <diffuse>
              <color sid="diffuse">0 0 0 1</color>
            </diffuse>
            <reflectivity>
              <float sid="specular">0.6492537</float>
            </reflectivity>
            <index_of_refraction>
              <float sid="ior">1.45</float>
            </index_of_refraction>
          </lambert>
        </technique>
      </profile_COMMON>
    </effect>
  </library_effects>
  <library_images>
    <image id="pistimage_png" name="pistimage_png">
      <init_from>pistimage.png</init_from>
    </image>
  </library_images>
  <library_materials>
    <material id="Material-material" name="Material">
      <instance_effect url="#Material-effect"/>
    </material>
    <material id="Material_001-material" name="Material.001">
      <instance_effect url="#Material_001-effect"/>
    </material>
    <material id="Material_022-material" name="Material.022">
      <instance_effect url="#Material_022-effect"/>
    </material>
  </library_materials>
  <library_geometries>
    <geometry id="Plane_005-mesh" name="Plane.005">
      <mesh>
        <source id="Plane_005-mesh-positions">
          <float_array id="Plane_005-mesh-positions-array" count="12">-1.483292 -0.9286692 0 1.492644 -0.9309908 0 -1.483485 1.483849 0 1.492644 1.48401 0</float_array>
          <technique_common>
            <accessor source="#Plane_005-mesh-positions-array" count="4" stride="3">
              <param name="X" type="float"/>
              <param name="Y" type="float"/>
              <param name="Z" type="float"/>
            </accessor>
          </technique_common>
        </source>
        <source id="Plane_005-mesh-normals">
          <float_array id="Plane_005-mesh-normals-array" count="3">0 0 1</float_array>
          <technique_common>
            <accessor source="#Plane_005-mesh-normals-array" count="1" stride="3">
              <param name="X" type="float"/>
              <param name="Y" type="float"/>
              <param name="Z" type="float"/>
            </accessor>
          </technique_common>
        </source>
        <source id="Plane_005-mesh-map-0">
          <float_array id="Plane_005-mesh-map-0-array" count="12">0 0 1 1 0 1 0 0 1 0 1 1</float_array>
          <technique_common>
            <accessor source="#Plane_005-mesh-map-0-array" count="6" stride="2">
              <param name="S" type="float"/>
              <param name="T" type="float"/>
            </accessor>
          </technique_common>
        </source>
        <vertices id="Plane_005-mesh-vertices">
          <input semantic="POSITION" source="#Plane_005-mesh-positions"/>
        </vertices>
        <triangles material="Material-material" count="2">
          <input semantic="VERTEX" source="#Plane_005-mesh-vertices" offset="0"/>
          <input semantic="NORMAL" source="#Plane_005-mesh-normals" offset="1"/>
          <input semantic="TEXCOORD" source="#Plane_005-mesh-map-0" offset="2" set="0"/>
          <p>0 0 0 3 0 1 2 0 2 0 0 3 1 0 4 3 0 5</p>
        </triangles>
      </mesh>
    </geometry>
    <geometry id="Cylinder_001-mesh" name="Cylinder.001">
      <mesh>
        <source id="Cylinder_001-mesh-positions">
          <float_array id="Cylinder_001-mesh-positions-array" count="192">0 1 0.9556894 0 1 1 0.1950903 0.9807853 0.9556894 0.1950903 0.9807853 1 0.3826835 0.9238795 0.9556894 0.3826835 0.9238795 1 0.5555703 0.8314696 0.9556894 0.5555703 0.8314696 1 0.7071068 0.7071068 0.9556894 0.7071068 0.7071068 1 0.8314696 0.5555703 0.9556894 0.8314696 0.5555703 1 0.9238795 0.3826835 0.9556894 0.9238795 0.3826835 1 0.9807853 0.1950903 0.9556894 0.9807853 0.1950903 1 1 0 0.9556894 1 0 1 0.9807853 -0.1950903 0.9556894 0.9807853 -0.1950903 1 0.9238795 -0.3826835 0.9556894 0.9238795 -0.3826835 1 0.8314696 -0.5555703 0.9556894 0.8314696 -0.5555703 1 0.7071068 -0.7071068 0.9556894 0.7071068 -0.7071068 1 0.5555703 -0.8314696 0.9556894 0.5555703 -0.8314696 1 0.3826835 -0.9238795 0.9556894 0.3826835 -0.9238795 1 0.1950903 -0.9807853 0.9556894 0.1950903 -0.9807853 1 0 -1 0.9556894 0 -1 1 -0.1950903 -0.9807853 0.9556894 -0.1950903 -0.9807853 1 -0.3826835 -0.9238795 0.9556894 -0.3826835 -0.9238795 1 -0.5555703 -0.8314696 0.9556894 -0.5555703 -0.8314696 1 -0.7071068 -0.7071068 0.9556894 -0.7071068 -0.7071068 1 -0.8314696 -0.5555703 0.9556894 -0.8314696 -0.5555703 1 -0.9238795 -0.3826835 0.9556894 -0.9238795 -0.3826835 1 -0.9807853 -0.1950903 0.9556894 -0.9807853 -0.1950903 1 -1 0 0.9556894 -1 0 1 -0.9807853 0.1950903 0.9556894 -0.9807853 0.1950903 1 -0.9238795 0.3826835 0.9556894 -0.9238795 0.3826835 1 -0.8314696 0.5555703 0.9556894 -0.8314696 0.5555703 1 -0.7071068 0.7071068 0.9556894 -0.7071068 0.7071068 1 -0.5555703 0.8314696 0.9556894 -0.5555703 0.8314696 1 -0.3826835 0.9238795 0.9556894 -0.3826835 0.9238795 1 -0.1950903 0.9807853 0.9556894 -0.1950903 0.9807853 1</float_array>
          <technique_common>
            <accessor source="#Cylinder_001-mesh-positions-array" count="64" stride="3">
              <param name="X" type="float"/>
              <param name="Y" type="float"/>
              <param name="Z" type="float"/>
            </accessor>
          </technique_common>
        </source>
        <source id="Cylinder_001-mesh-normals">
          <float_array id="Cylinder_001-mesh-normals-array" count="210">0.09801667 0.9951848 0 0.2902849 0.9569404 0 0.4713968 0.8819213 0 0.634393 0.7730109 0 0.7730109 0.634393 0 0.8819211 0.4713971 0 0.9569404 0.2902847 0 0.9951847 0.09801775 0 0.9951848 -0.09801608 0 0.9569402 -0.2902855 0 0.8819215 -0.4713965 0 0.7730109 -0.634393 0 0.6343932 -0.7730107 0 0.4713966 -0.8819214 0 0.2902849 -0.9569404 0 0.09801667 -0.9951848 0 -0.09801667 -0.9951848 0 -0.2902849 -0.9569404 0 -0.4713968 -0.8819213 0 -0.634393 -0.7730109 0 -0.7730109 -0.634393 0 -0.8819211 -0.4713971 0 -0.9569404 -0.2902847 0 -0.9951847 -0.09801775 0 -0.9951848 0.09801608 0 -0.9569402 0.2902855 0 -0.8819215 0.4713965 0 -0.7730109 0.634393 0 -0.6343932 0.7730107 0 -0.4713966 0.8819214 0 0 0 1 -0.2902849 0.9569404 0 -0.09801667 0.9951848 0 0 0 -1 0.09801709 0.9951848 0 0.2902849 0.9569404 0 0.4713966 0.8819214 0 0.6343932 0.7730107 0 0.8819215 0.4713965 0 0.9569404 0.2902845 0 0.9951848 0.09801638 0 0.9951847 -0.0980181 0 0.9569407 -0.2902837 0 0.8819211 -0.4713971 0 0.634393 -0.7730109 0 0.4713968 -0.8819213 0 0.2902849 -0.9569404 0 0.09801709 -0.9951848 0 -0.09801709 -0.9951848 0 -0.2902849 -0.9569404 0 -0.4713966 -0.8819214 0 -0.6343932 -0.7730107 0 -0.8819215 -0.4713965 0 -0.9569404 -0.2902845 0 -0.9951848 -0.09801638 0 -0.9951847 0.0980181 0 -0.9569407 0.2902837 0 -0.8819211 0.4713971 0 -0.634393 0.7730109 0 -0.4713968 0.8819213 0 -0.2902849 0.9569404 0 -0.09801709 0.9951848 0 -3.97512e-6 0 -1 -7.95024e-6 0 -1 -7.95024e-6 0 -1 3.97512e-6 0 -1 7.95024e-6 0 -1 7.95024e-6 0 -1 3.59257e-7 0 -1 -3.59257e-7 0 -1</float_array>
          <technique_common>
            <accessor source="#Cylinder_001-mesh-normals-array" count="70" stride="3">
              <param name="X" type="float"/>
              <param name="Y" type="float"/>
              <param name="Z" type="float"/>
            </accessor>
          </technique_common>
        </source>
        <source id="Cylinder_001-mesh-map-0">
          <float_array id="Cylinder_001-mesh-map-0-array" count="744">1 1 0.96875 0.5 1 0.5 0.96875 1 0.9375 0.5 0.96875 0.5 0.9375 1 0.90625 0.5 0.9375 0.5 0.90625 1 0.8750001 0.5 0.90625 0.5 0.8750001 1 0.84375 0.5 0.8750001 0.5 0.84375 1 0.8125 0.5 0.84375 0.5 0.8125 1 0.78125 0.5 0.8125 0.5 0.78125 1 0.75 0.5 0.78125 0.5 0.75 1 0.71875 0.5 0.75 0.5 0.71875 1 0.6875 0.5 0.71875 0.5 0.6875 1 0.65625 0.5 0.6875 0.5 0.65625 1 0.625 0.5 0.65625 0.5 0.625 1 0.59375 0.5 0.625 0.5 0.59375 1 0.5625 0.5 0.59375 0.5 0.5625 1 0.53125 0.5 0.5625 0.5 0.53125 1 0.5 0.5 0.53125 0.5 0.5 1 0.46875 0.5 0.5 0.5 0.46875 1 0.4375 0.5 0.46875 0.5 0.4375 1 0.40625 0.5 0.4375 0.5 0.40625 1 0.375 0.5 0.40625 0.5 0.375 1 0.34375 0.5 0.375 0.5 0.34375 1 0.3125 0.5 0.34375 0.5 0.3125 1 0.28125 0.5 0.3125 0.5 0.28125 1 0.25 0.5 0.28125 0.5 0.25 1 0.21875 0.5 0.25 0.5 0.21875 1 0.1875 0.5 0.21875 0.5 0.1875 1 0.15625 0.5 0.1875 0.5 0.15625 1 0.125 0.5 0.15625 0.5 0.125 1 0.09375 0.5 0.125 0.5 0.09375 1 0.0625 0.5 0.09375 0.5 0.1581559 0.02826887 0.4717311 0.1581559 0.341844 0.4717311 0.0625 1 0.03125 0.5 0.0625 0.5 0.03125 1 0 0.5 0.03125 0.5 0.7968217 0.01461154 0.5146116 0.2031783 0.7031784 0.4853885 1 1 0.96875 1 0.96875 0.5 0.96875 1 0.9375 1 0.9375 0.5 0.9375 1 0.90625 1 0.90625 0.5 0.90625 1 0.8750001 1 0.8750001 0.5 0.8750001 1 0.84375 1 0.84375 0.5 0.84375 1 0.8125 1 0.8125 0.5 0.8125 1 0.78125 1 0.78125 0.5 0.78125 1 0.75 1 0.75 0.5 0.75 1 0.71875 1 0.71875 0.5 0.71875 1 0.6875 1 0.6875 0.5 0.6875 1 0.65625 1 0.65625 0.5 0.65625 1 0.625 1 0.625 0.5 0.625 1 0.59375 1 0.59375 0.5 0.59375 1 0.5625 1 0.5625 0.5 0.5625 1 0.53125 1 0.53125 0.5 0.53125 1 0.5 1 0.5 0.5 0.5 1 0.46875 1 0.46875 0.5 0.46875 1 0.4375 1 0.4375 0.5 0.4375 1 0.40625 1 0.40625 0.5 0.40625 1 0.375 1 0.375 0.5 0.375 1 0.34375 1 0.34375 0.5 0.34375 1 0.3125 1 0.3125 0.5 0.3125 1 0.28125 1 0.28125 0.5 0.28125 1 0.25 1 0.25 0.5 0.25 1 0.21875 1 0.21875 0.5 0.21875 1 0.1875 1 0.1875 0.5 0.1875 1 0.15625 1 0.15625 0.5 0.15625 1 0.125 1 0.125 0.5 0.125 1 0.09375 1 0.09375 0.5 0.09375 1 0.0625 1 0.0625 0.5 0.341844 0.4717311 0.2968217 0.4853885 0.25 0.49 0.25 0.49 0.2031783 0.4853885 0.341844 0.4717311 0.2031783 0.4853885 0.1581559 0.4717311 0.341844 0.4717311 0.1581559 0.4717311 0.116663 0.4495527 0.08029437 0.4197056 0.08029437 0.4197056 0.05044728 0.3833369 0.02826887 0.341844 0.02826887 0.341844 0.01461154 0.2968217 0.00999999 0.25 0.00999999 0.25 0.01461154 0.2031783 0.02826887 0.341844 0.01461154 0.2031783 0.02826887 0.1581559 0.02826887 0.341844 0.02826887 0.1581559 0.05044728 0.116663 0.08029437 0.08029437 0.08029437 0.08029437 0.116663 0.05044728 0.1581559 0.02826887 0.1581559 0.02826887 0.2031783 0.01461154 0.341844 0.02826887 0.2031783 0.01461154 0.25 0.00999999 0.341844 0.02826887 0.25 0.00999999 0.2968217 0.01461154 0.341844 0.02826887 0.341844 0.02826887 0.3833369 0.05044728 0.4197056 0.08029437 0.4197056 0.08029437 0.4495527 0.116663 0.4717311 0.1581559 0.4717311 0.1581559 0.4853885 0.2031783 0.4717311 0.341844 0.4853885 0.2031783 0.49 0.25 0.4717311 0.341844 0.49 0.25 0.4853885 0.2968217 0.4717311 0.341844 0.4717311 0.341844 0.4495527 0.3833369 0.4197056 0.4197056 0.4197056 0.4197056 0.3833369 0.4495527 0.341844 0.4717311 0.1581559 0.4717311 0.08029437 0.4197056 0.341844 0.4717311 0.08029437 0.4197056 0.02826887 0.341844 0.341844 0.4717311 0.02826887 0.1581559 0.08029437 0.08029437 0.02826887 0.341844 0.08029437 0.08029437 0.1581559 0.02826887 0.02826887 0.341844 0.341844 0.02826887 0.4197056 0.08029437 0.1581559 0.02826887 0.4197056 0.08029437 0.4717311 0.1581559 0.1581559 0.02826887 0.4717311 0.341844 0.4197056 0.4197056 0.4717311 0.1581559 0.4197056 0.4197056 0.341844 0.4717311 0.4717311 0.1581559 0.341844 0.4717311 0.02826887 0.341844 0.1581559 0.02826887 0.0625 1 0.03125 1 0.03125 0.5 0.03125 1 0 1 0 0.5 0.7031784 0.4853885 0.75 0.49 0.7968217 0.4853885 0.7968217 0.4853885 0.841844 0.4717311 0.8833369 0.4495527 0.8833369 0.4495527 0.9197056 0.4197056 0.9495527 0.3833369 0.9495527 0.3833369 0.9717311 0.341844 0.9853885 0.2968217 0.9853885 0.2968217 0.99 0.25 0.9853885 0.2031783 0.9853885 0.2031783 0.9717311 0.1581559 0.9495527 0.116663 0.9495527 0.116663 0.9197056 0.08029437 0.8833369 0.05044728 0.8833369 0.05044728 0.841844 0.02826887 0.7968217 0.01461154 0.7968217 0.01461154 0.75 0.00999999 0.7031784 0.01461154 0.7031784 0.01461154 0.658156 0.02826887 0.6166632 0.05044728 0.6166632 0.05044728 0.5802944 0.08029437 0.5504473 0.116663 0.5504473 0.116663 0.5282689 0.1581559 0.5146116 0.2031783 0.5146116 0.2031783 0.51 0.25 0.5146116 0.2968217 0.5146116 0.2968217 0.5282689 0.341844 0.5504473 0.3833369 0.5504473 0.3833369 0.5802944 0.4197056 0.6166632 0.4495527 0.6166632 0.4495527 0.658156 0.4717311 0.7031784 0.4853885 0.7031784 0.4853885 0.7968217 0.4853885 0.9853885 0.2968217 0.7968217 0.4853885 0.8833369 0.4495527 0.9853885 0.2968217 0.8833369 0.4495527 0.9495527 0.3833369 0.9853885 0.2968217 0.9853885 0.2968217 0.9853885 0.2031783 0.7968217 0.01461154 0.9853885 0.2031783 0.9495527 0.116663 0.7968217 0.01461154 0.9495527 0.116663 0.8833369 0.05044728 0.7968217 0.01461154 0.7968217 0.01461154 0.7031784 0.01461154 0.5146116 0.2031783 0.7031784 0.01461154 0.6166632 0.05044728 0.5146116 0.2031783 0.6166632 0.05044728 0.5504473 0.116663 0.5146116 0.2031783 0.5146116 0.2031783 0.5146116 0.2968217 0.7031784 0.4853885 0.5146116 0.2968217 0.5504473 0.3833369 0.7031784 0.4853885 0.5504473 0.3833369 0.6166632 0.4495527 0.7031784 0.4853885 0.7031784 0.4853885 0.9853885 0.2968217 0.7968217 0.01461154</float_array>
          <technique_common>
            <accessor source="#Cylinder_001-mesh-map-0-array" count="372" stride="2">
              <param name="S" type="float"/>
              <param name="T" type="float"/>
            </accessor>
          </technique_common>
        </source>
        <vertices id="Cylinder_001-mesh-vertices">
          <input semantic="POSITION" source="#Cylinder_001-mesh-positions"/>
        </vertices>
        <triangles material="Material_001-material" count="124">
          <input semantic="VERTEX" source="#Cylinder_001-mesh-vertices" offset="0"/>
          <input semantic="NORMAL" source="#Cylinder_001-mesh-normals" offset="1"/>
          <input semantic="TEXCOORD" source="#Cylinder_001-mesh-map-0" offset="2" set="0"/>
          <p>1 0 0 2 0 1 0 0 2 3 1 3 4 1 4 2 1 5 5 2 6 6 2 7 4 2 8 7 3 9 8 3 10 6 3 11 9 4 12 10 4 13 8 4 14 11 5 15 12 5 16 10 5 17 13 6 18 14 6 19 12 6 20 15 7 21 16 7 22 14 7 23 17 8 24 18 8 25 16 8 26 19 9 27 20 9 28 18 9 29 21 10 30 22 10 31 20 10 32 23 11 33 24 11 34 22 11 35 25 12 36 26 12 37 24 12 38 27 13 39 28 13 40 26 13 41 29 14 42 30 14 43 28 14 44 31 15 45 32 15 46 30 15 47 33 16 48 34 16 49 32 16 50 35 17 51 36 17 52 34 17 53 37 18 54 38 18 55 36 18 56 39 19 57 40 19 58 38 19 59 41 20 60 42 20 61 40 20 62 43 21 63 44 21 64 42 21 65 45 22 66 46 22 67 44 22 68 47 23 69 48 23 70 46 23 71 49 24 72 50 24 73 48 24 74 51 25 75 52 25 76 50 25 77 53 26 78 54 26 79 52 26 80 55 27 81 56 27 82 54 27 83 57 28 84 58 28 85 56 28 86 59 29 87 60 29 88 58 29 89 37 30 90 21 30 91 5 30 92 61 31 93 62 31 94 60 31 95 63 32 96 0 32 97 62 32 98 30 33 99 46 33 100 62 33 101 1 34 102 3 34 103 2 34 104 3 35 105 5 35 106 4 35 107 5 36 108 7 36 109 6 36 110 7 37 111 9 37 112 8 37 113 9 4 114 11 4 115 10 4 116 11 38 117 13 38 118 12 38 119 13 39 120 15 39 121 14 39 122 15 40 123 17 40 124 16 40 125 17 41 126 19 41 127 18 41 128 19 42 129 21 42 130 20 42 131 21 43 132 23 43 133 22 43 134 23 11 135 25 11 136 24 11 137 25 44 138 27 44 139 26 44 140 27 45 141 29 45 142 28 45 143 29 46 144 31 46 145 30 46 146 31 47 147 33 47 148 32 47 149 33 48 150 35 48 151 34 48 152 35 49 153 37 49 154 36 49 155 37 50 156 39 50 157 38 50 158 39 51 159 41 51 160 40 51 161 41 20 162 43 20 163 42 20 164 43 52 165 45 52 166 44 52 167 45 53 168 47 53 169 46 53 170 47 54 171 49 54 172 48 54 173 49 55 174 51 55 175 50 55 176 51 56 177 53 56 178 52 56 179 53 57 180 55 57 181 54 57 182 55 27 183 57 27 184 56 27 185 57 58 186 59 58 187 58 58 188 59 59 189 61 59 190 60 59 191 5 30 192 3 30 193 1 30 194 1 30 195 63 30 196 5 30 197 63 30 198 61 30 199 5 30 200 61 30 201 59 30 202 57 30 203 57 30 204 55 30 205 53 30 206 53 30 207 51 30 208 49 30 209 49 30 210 47 30 211 53 30 212 47 30 213 45 30 214 53 30 215 45 30 216 43 30 217 41 30 218 41 30 219 39 30 220 37 30 221 37 30 222 35 30 223 29 30 224 35 30 225 33 30 226 29 30 227 33 30 228 31 30 229 29 30 230 29 30 231 27 30 232 25 30 233 25 30 234 23 30 235 21 30 236 21 30 237 19 30 238 13 30 239 19 30 240 17 30 241 13 30 242 17 30 243 15 30 244 13 30 245 13 30 246 11 30 247 9 30 248 9 30 249 7 30 250 5 30 251 61 30 252 57 30 253 5 30 254 57 30 255 53 30 256 5 30 257 45 30 258 41 30 259 53 30 260 41 30 261 37 30 262 53 30 263 29 30 264 25 30 265 37 30 266 25 30 267 21 30 268 37 30 269 13 30 270 9 30 271 21 30 272 9 30 273 5 30 274 21 30 275 5 30 276 53 30 277 37 30 278 61 60 279 63 60 280 62 60 281 63 61 282 1 61 283 0 61 284 62 33 285 0 33 286 2 33 287 2 33 288 4 33 289 6 33 290 6 62 291 8 62 292 10 62 293 10 63 294 12 63 295 14 63 296 14 33 297 16 33 298 18 33 299 18 64 300 20 64 301 22 64 302 22 62 303 24 62 304 26 62 305 26 33 306 28 33 307 30 33 308 30 33 309 32 33 310 34 33 311 34 33 312 36 33 313 38 33 314 38 65 315 40 65 316 42 65 317 42 66 318 44 66 319 46 66 320 46 33 321 48 33 322 50 33 323 50 67 324 52 67 325 54 67 326 54 65 327 56 65 328 58 65 329 58 33 330 60 33 331 62 33 332 62 33 333 2 33 334 14 33 335 2 33 336 6 33 337 14 33 338 6 33 339 10 33 340 14 33 341 14 33 342 18 33 343 30 33 344 18 68 345 22 68 346 30 68 347 22 33 348 26 33 349 30 33 350 30 33 351 34 33 352 46 33 353 34 33 354 38 33 355 46 33 356 38 33 357 42 33 358 46 33 359 46 33 360 50 33 361 62 33 362 50 69 363 54 69 364 62 69 365 54 33 366 58 33 367 62 33 368 62 33 369 14 33 370 30 33 371</p>
        </triangles>
      </mesh>
    </geometry>
    <geometry id="Cube_001-mesh" name="Cube.001">
      <mesh>
        <source id="Cube_001-mesh-positions">
          <float_array id="Cube_001-mesh-positions-array" count="72">-0.8921344 -5.383932 -1 -0.8921344 -5.403175 2.061405 -0.877736 1.314841 -1 -0.877736 1.29057 2.049899 12.83018 -5.415016 -1 12.83018 -5.415016 2.061405 12.73116 1.277718 -1 12.73116 1.253447 2.049899 -0.8921344 -5.332233 1.990018 -0.8921344 -5.313427 2.061405 12.83018 -5.34459 1.988574 12.83018 -5.325269 2.061405 -0.877736 1.196066 2.049899 12.73116 1.172446 1.982603 -0.877736 1.209555 1.997661 12.73116 1.158944 2.049899 -0.877736 1.208953 2.049899 12.73116 1.195798 -1 -0.877736 1.233161 -1 12.73116 1.171831 2.049899 -0.8921344 -5.31346 -1 12.83018 -5.344599 2.061405 -0.8921344 -5.332757 2.061405 12.83018 -5.344337 -1</float_array>
          <technique_common>
            <accessor source="#Cube_001-mesh-positions-array" count="24" stride="3">
              <param name="X" type="float"/>
              <param name="Y" type="float"/>
              <param name="Z" type="float"/>
            </accessor>
          </technique_common>
        </source>
        <source id="Cube_001-mesh-normals">
          <float_array id="Cube_001-mesh-normals-array" count="81">-1 0 0 0.002727746 0.9999647 0.007957637 1 0 0 -0.002265155 -0.9999777 -0.006285727 0 0 -1 0 0 1 1.51118e-6 0.00177443 0.9999985 -0.001103281 0.001170754 -0.9999988 0.9998766 0.01518845 -0.004029214 -1 2.47322e-5 8.68018e-5 -1 1.9826e-5 8.57755e-5 -1 1.59796e-5 8.78077e-5 -0.002735435 -0.9999653 -0.007874488 0 0 1 -0.9999975 0.002201676 -5.80011e-4 0 0 1 9.01129e-4 0.99998 0.006278514 0.002727746 0.9999647 0.007957637 -8.62922e-4 -0.9999997 0 4.82286e-6 0.001767516 0.9999985 -1.06051e-4 -9.17837e-4 -0.9999997 0.9998787 0.01527452 0.003064453 -0.00274533 -0.9999657 -0.007829129 0 0 1 -0.9999975 0.002212882 5.71433e-4 0 0 1 0.002250075 0.9999976 8.44605e-5</float_array>
          <technique_common>
            <accessor source="#Cube_001-mesh-normals-array" count="27" stride="3">
              <param name="X" type="float"/>
              <param name="Y" type="float"/>
              <param name="Z" type="float"/>
            </accessor>
          </technique_common>
        </source>
        <source id="Cube_001-mesh-map-0">
          <float_array id="Cube_001-mesh-map-0-array" count="264">0.375 0.2468785 0.625 0.25 0.375 0.25 0.625 0.25 0.375 0.5 0.375 0.25 0.625 0.7473069 0.375 0.75 0.375 0.747307 0.375 0.75 0.625 1 0.375 1 0.375 0.747307 0.125 0.75 0.125 0.747307 0.625 0.7473069 0.8750001 0.75 0.625 0.75 0.625 0.5036143 0.8750001 0.7465676 0.625 0.7465676 0.375 0.5036143 0.125 0.7465676 0.125 0.5036143 0.375 0.5036143 0.625 0.7465676 0.3750001 0.7465677 0.625 0.002693057 0.375 0.003432393 0.375 0.002693057 0.625 0.5031215 0.375 0.5036143 0.375 0.5031215 0.125 0.5031215 0.375 0.5036143 0.125 0.5036143 0.625 0.5031215 0.8750001 0.5036143 0.625 0.5036143 0.625 0.003432393 0.375 0.2463856 0.375 0.003432393 0.625 0.5 0.8750001 0.5031214 0.625 0.5031215 0.375 0.5 0.125 0.5031215 0.125 0.5 0.625 0.5 0.375 0.5031215 0.375 0.5 0.375 0.2463856 0.625 0.2468785 0.375 0.2468785 0.375 0 0.625 0.002693057 0.375 0.002693057 0.625 0.7465676 0.8750001 0.7473069 0.625 0.7473069 0.3750001 0.7465677 0.125 0.747307 0.125 0.7465676 0.3750001 0.7465677 0.625 0.7473069 0.375 0.747307 0.375 0.2468785 0.625 0.2468785 0.625 0.25 0.625 0.25 0.625 0.5 0.375 0.5 0.625 0.7473069 0.625 0.75 0.375 0.75 0.375 0.75 0.625 0.75 0.625 1 0.375 0.747307 0.375 0.75 0.125 0.75 0.625 0.7473069 0.8750001 0.7473069 0.8750001 0.75 0.625 0.5036143 0.8750001 0.5036143 0.8750001 0.7465676 0.375 0.5036143 0.3750001 0.7465677 0.125 0.7465676 0.375 0.5036143 0.625 0.5036143 0.625 0.7465676 0.625 0.002693057 0.625 0.003432393 0.375 0.003432393 0.625 0.5031215 0.625 0.5036143 0.375 0.5036143 0.125 0.5031215 0.375 0.5031215 0.375 0.5036143 0.625 0.5031215 0.8750001 0.5031214 0.8750001 0.5036143 0.625 0.003432393 0.625 0.2463856 0.375 0.2463856 0.625 0.5 0.8750001 0.5 0.8750001 0.5031214 0.375 0.5 0.375 0.5031215 0.125 0.5031215 0.625 0.5 0.625 0.5031215 0.375 0.5031215 0.375 0.2463856 0.625 0.2463856 0.625 0.2468785 0.375 0 0.625 0 0.625 0.002693057 0.625 0.7465676 0.8750001 0.7465676 0.8750001 0.7473069 0.3750001 0.7465677 0.375 0.747307 0.125 0.747307 0.3750001 0.7465677 0.625 0.7465676 0.625 0.7473069</float_array>
          <technique_common>
            <accessor source="#Cube_001-mesh-map-0-array" count="132" stride="2">
              <param name="S" type="float"/>
              <param name="T" type="float"/>
            </accessor>
          </technique_common>
        </source>
        <vertices id="Cube_001-mesh-vertices">
          <input semantic="POSITION" source="#Cube_001-mesh-positions"/>
        </vertices>
        <triangles material="Material_022-material" count="44">
          <input semantic="VERTEX" source="#Cube_001-mesh-vertices" offset="0"/>
          <input semantic="NORMAL" source="#Cube_001-mesh-normals" offset="1"/>
          <input semantic="TEXCOORD" source="#Cube_001-mesh-map-0" offset="2" set="0"/>
          <p>18 0 0 3 0 1 2 0 2 3 1 3 6 1 4 2 1 5 21 2 6 4 2 7 23 2 8 4 3 9 1 3 10 0 3 11 23 4 12 0 4 13 20 4 14 21 5 15 1 5 16 5 5 17 15 6 18 9 6 19 11 6 20 13 7 21 8 7 22 14 7 23 13 8 24 11 8 25 10 8 26 22 0 27 8 0 28 20 0 29 19 9 30 13 10 31 17 11 32 18 12 33 13 12 34 14 12 35 19 13 36 12 13 37 15 13 38 9 14 39 14 14 40 8 14 41 7 15 42 16 15 43 19 15 44 6 4 45 18 4 46 2 4 47 7 2 48 17 2 49 6 2 50 14 2 51 16 2 52 18 2 53 0 0 54 22 0 55 20 0 56 11 13 57 22 13 58 21 13 59 10 16 60 20 16 61 8 16 62 10 2 63 21 2 64 23 2 65 18 0 66 16 0 67 3 0 68 3 17 69 7 17 70 6 17 71 21 2 72 5 2 73 4 2 74 4 18 75 5 18 76 1 18 77 23 4 78 4 4 79 0 4 80 21 13 81 22 13 82 1 13 83 15 19 84 12 19 85 9 19 86 13 20 87 10 20 88 8 20 89 13 21 90 15 21 91 11 21 92 22 0 93 9 0 94 8 0 95 19 2 96 15 2 97 13 2 98 18 22 99 17 22 100 13 22 101 19 23 102 16 23 103 12 23 104 9 24 105 12 24 106 14 24 107 7 25 108 3 25 109 16 25 110 6 4 111 17 4 112 18 4 113 7 2 114 19 2 115 17 2 116 14 0 117 12 0 118 16 0 119 0 0 120 1 0 121 22 0 122 11 13 123 9 13 124 22 13 125 10 26 126 23 26 127 20 26 128 10 2 129 11 2 130 21 2 131</p>
        </triangles>
      </mesh>
    </geometry>
  </library_geometries>
  <library_visual_scenes>
    <visual_scene id="Scene" name="Scene">
      <node id="Plane_140" name="Plane.140" type="NODE">
        <matrix sid="transform">33.19872 0 0 3.380128 0 33.19872 0 4.539999 0 0 33.19872 0 0 0 0 1</matrix>
        <instance_geometry url="#Plane_005-mesh" name="Plane.140">
          <bind_material>
            <technique_common>
              <instance_material symbol="Material-material" target="#Material-material">
                <bind_vertex_input semantic="UVMap" input_semantic="TEXCOORD" input_set="0"/>
              </instance_material>
            </technique_common>
          </bind_material>
        </instance_geometry>
      </node>
      <node id="Cylinder_001" name="Cylinder.001" type="NODE">
        <matrix sid="transform">2.662773 0 0 -10.97252 0 2.662773 0 27.59667 0 0 2.662773 0.4914148 0 0 0 1</matrix>
        <instance_geometry url="#Cylinder_001-mesh" name="Cylinder.001">
          <bind_material>
            <technique_common>
              <instance_material symbol="Material_001-material" target="#Material_001-material">
                <bind_vertex_input semantic="Cylinder_001-mesh-map-0" input_semantic="TEXCOORD" input_set="0"/>
              </instance_material>
            </technique_common>
          </bind_material>
        </instance_geometry>
      </node>
      <node id="Cube" name="Cube" type="NODE">
        <matrix sid="transform">1 0 0 -16.57427 0 1 0 29.51198 0 0 1 1.013655 0 0 0 1</matrix>
        <instance_geometry url="#Cube_001-mesh" name="Cube">
          <bind_material>
            <technique_common>
              <instance_material symbol="Material_022-material" target="#Material_022-material">
                <bind_vertex_input semantic="Cube_001-mesh-map-0" input_semantic="TEXCOORD" input_set="0"/>
              </instance_material>
            </technique_common>
          </bind_material>
        </instance_geometry>
      </node>
      <node id="Area" name="Area" type="NODE">
        <matrix sid="transform">98.70034 0 0 2.11551 0 98.70034 0 4.302878 0 0 232.9059 9.977255 0 0 0 1</matrix>
        <instance_light url="#Area-light"/>
      </node>
    </visual_scene>
  </library_visual_scenes>
  <scene>
    <instance_visual_scene url="#Scene"/>
  </scene>
</COLLADA>
