<?xml version="1.0" encoding="utf-8"?>
<COLLADA xmlns="http://www.collada.org/2005/11/COLLADASchema" version="1.4.1" xmlns:xsi="http://www.w3.org/2001/XMLSchema-instance">
  <asset>
    <contributor>
      <author>Blender User</author>
      <authoring_tool>Blender 3.6.5 commit date:2023-10-16, commit time:14:30, hash:cf1e1ed46b7e</authoring_tool>
    </contributor>
    <created>2023-12-03T12:07:54</created>
    <modified>2023-12-03T12:07:54</modified>
    <unit name="meter" meter="1"/>
    <up_axis>Z_UP</up_axis>
  </asset>
  <library_effects>
    <effect id="park-effect">
      <profile_COMMON>
        <newparam sid="parking_jpg-surface">
          <surface type="2D">
            <init_from>parking_jpg</init_from>
          </surface>
        </newparam>
        <newparam sid="parking_jpg-sampler">
          <sampler2D>
            <source>parking_jpg-surface</source>
          </sampler2D>
        </newparam>
        <technique sid="common">
          <lambert>
            <emission>
              <color sid="emission">0 0 0 1</color>
            </emission>
            <diffuse>
              <texture texture="parking_jpg-sampler" texcoord="UVMap"/>
            </diffuse>
            <index_of_refraction>
              <float sid="ior">1.45</float>
            </index_of_refraction>
          </lambert>
        </technique>
      </profile_COMMON>
    </effect>
    <effect id="Metal_004-effect">
      <profile_COMMON>
        <newparam sid="file2_001_png-surface">
          <surface type="2D">
            <init_from>file2_001_png</init_from>
          </surface>
        </newparam>
        <newparam sid="file2_001_png-sampler">
          <sampler2D>
            <source>file2_001_png-surface</source>
          </sampler2D>
        </newparam>
        <technique sid="common">
          <lambert>
            <emission>
              <color sid="emission">0 0 0 1</color>
            </emission>
            <diffuse>
              <texture texture="file2_001_png-sampler" texcoord="Mesh_002-mesh-map-0"/>
            </diffuse>
            <index_of_refraction>
              <float sid="ior">1.45</float>
            </index_of_refraction>
          </lambert>
        </technique>
      </profile_COMMON>
    </effect>
    <effect id="solsag-effect">
      <profile_COMMON>
        <newparam sid="solsag_png-surface">
          <surface type="2D">
            <init_from>solsag_png</init_from>
          </surface>
        </newparam>
        <newparam sid="solsag_png-sampler">
          <sampler2D>
            <source>solsag_png-surface</source>
          </sampler2D>
        </newparam>
        <technique sid="common">
          <lambert>
            <emission>
              <color sid="emission">0 0 0 1</color>
            </emission>
            <diffuse>
              <texture texture="solsag_png-sampler" texcoord="Mesh_002-mesh-map-0"/>
            </diffuse>
            <index_of_refraction>
              <float sid="ior">1.45</float>
            </index_of_refraction>
          </lambert>
        </technique>
      </profile_COMMON>
    </effect>
    <effect id="SmallPart_004-effect">
      <profile_COMMON>
        <newparam sid="file1_jpg-surface">
          <surface type="2D">
            <init_from>file1_jpg</init_from>
          </surface>
        </newparam>
        <newparam sid="file1_jpg-sampler">
          <sampler2D>
            <source>file1_jpg-surface</source>
          </sampler2D>
        </newparam>
        <technique sid="common">
          <lambert>
            <emission>
              <color sid="emission">0 0 0 1</color>
            </emission>
            <diffuse>
              <texture texture="file1_jpg-sampler" texcoord="Mesh_002-mesh-map-0"/>
            </diffuse>
            <index_of_refraction>
              <float sid="ior">1.45</float>
            </index_of_refraction>
          </lambert>
        </technique>
      </profile_COMMON>
    </effect>
  </library_effects>
  <library_images>
    <image id="parking_jpg" name="parking_jpg">
      <init_from>parking.jpg</init_from>
    </image>
  </library_images>
  <library_materials>
    <material id="park-material" name="park">
      <instance_effect url="#park-effect"/>
    </material>
    <material id="Metal_004-material" name="Metal.004">
      <instance_effect url="#Metal_004-effect"/>
    </material>
    <material id="solsag-material" name="solsag">
      <instance_effect url="#solsag-effect"/>
    </material>
    <material id="SmallPart_004-material" name="SmallPart.004">
      <instance_effect url="#SmallPart_004-effect"/>
    </material>
  </library_materials>
  <library_geometries>
    <geometry id="Plane-mesh" name="Plane">
      <mesh>
        <source id="Plane-mesh-positions">
          <float_array id="Plane-mesh-positions-array" count="12">9.50804 -0.09810781 1.675861 11.50748 -0.1450855 1.676929 9.504202 -0.1082386 2.269675 11.50365 -0.1552163 2.270744</float_array>
          <technique_common>
            <accessor source="#Plane-mesh-positions-array" count="4" stride="3">
              <param name="X" type="float"/>
              <param name="Y" type="float"/>
              <param name="Z" type="float"/>
            </accessor>
          </technique_common>
        </source>
        <source id="Plane-mesh-normals">
          <float_array id="Plane-mesh-normals-array" count="6">-0.02347618 -0.9995764 -0.01720511 -0.02347618 -0.9995764 -0.01720505</float_array>
          <technique_common>
            <accessor source="#Plane-mesh-normals-array" count="2" stride="3">
              <param name="X" type="float"/>
              <param name="Y" type="float"/>
              <param name="Z" type="float"/>
            </accessor>
          </technique_common>
        </source>
        <source id="Plane-mesh-map-0">
          <float_array id="Plane-mesh-map-0-array" count="12">0 0 1 1 0 1 0 0 1 0 1 1</float_array>
          <technique_common>
            <accessor source="#Plane-mesh-map-0-array" count="6" stride="2">
              <param name="S" type="float"/>
              <param name="T" type="float"/>
            </accessor>
          </technique_common>
        </source>
        <vertices id="Plane-mesh-vertices">
          <input semantic="POSITION" source="#Plane-mesh-positions"/>
        </vertices>
        <triangles material="park-material" count="2">
          <input semantic="VERTEX" source="#Plane-mesh-vertices" offset="0"/>
          <input semantic="NORMAL" source="#Plane-mesh-normals" offset="1"/>
          <input semantic="TEXCOORD" source="#Plane-mesh-map-0" offset="2" set="0"/>
          <p>0 0 0 3 0 1 2 0 2 0 1 3 1 1 4 3 1 5</p>
        </triangles>
      </mesh>
    </geometry>
    <geometry id="Mesh_004-mesh" name="Mesh.004">
      <mesh>
        <source id="Mesh_004-mesh-positions">
          <float_array id="Mesh_004-mesh-positions-array" count="186">-3.799577 9.231773 0.1243736 -3.947757 9.45354 0.124373 -4.169524 9.60172 0.1243725 -4.431117 9.653756 0.1243723 -4.692709 9.60172 0.1243725 -4.914476 9.453542 0.124373 -5.062657 9.231775 0.1243736 -5.114691 8.97018 0.1243745 -5.062657 8.708589 0.1243753 -4.914477 8.486821 0.1243759 -4.69271 8.338642 0.1243764 -4.431118 8.286607 0.1243766 -4.169525 8.338642 0.1243764 -3.947757 8.486821 0.1243759 -3.799577 8.708589 0.1243753 -3.747543 8.97018 0.1243745 -3.805286 9.249 0.4306018 -3.95811 9.466645 0.4305992 -4.182942 9.608707 0.4305974 -4.445558 9.65356 0.4305967 -4.705976 9.594374 0.4305971 -4.924549 9.440164 0.4305987 -5.068001 9.214401 0.4306011 -5.114493 8.951457 0.430604 -5.056948 8.691368 0.4306069 -4.904127 8.473721 0.4306094 -4.679294 8.33166 0.4306111 -4.416676 8.286809 0.4306119 -4.156259 8.345993 0.4306114 -3.937686 8.500205 0.4306099 -3.794234 8.725968 0.4306076 -3.747741 8.988909 0.4306046 -4.909511 9.149434 0.1044742 -4.774625 9.149434 0.1044742 -4.63974 9.149434 0.1044742 -4.504854 9.149434 -0.1905004 -4.369969 9.149434 -0.1905004 -4.235084 9.149434 0.1044742 -4.100198 9.149434 0.1044742 -3.965312 9.149434 0.1044742 -4.909511 8.78133 0.1044744 -4.774625 8.78133 0.1044744 -4.63974 8.78133 0.1044744 -4.504854 8.78133 -0.1905003 -4.369969 8.78133 -0.1905003 -4.235084 8.78133 0.1044744 -4.100198 8.78133 0.1044744 -3.965312 8.78133 0.1044744 -4.365285 1.357328 -0.1732019 -4.509538 1.357328 -0.173202 -4.581664 1.357328 3.05474e-6 -4.509538 1.357328 0.1732081 -4.365285 1.357328 0.1732081 -4.293159 1.357328 3.08454e-6 -4.365285 9.643165 -0.173206 -4.509538 9.643165 -0.173206 -4.581664 9.643165 -9.83477e-7 -4.509538 9.643165 0.1732041 -4.365285 9.643165 0.1732041 -4.293159 9.643165 -9.53674e-7 -4.437412 1.357328 3.08454e-6 -4.437412 9.643165 -9.53674e-7</float_array>
          <technique_common>
            <accessor source="#Mesh_004-mesh-positions-array" count="62" stride="3">
              <param name="X" type="float"/>
              <param name="Y" type="float"/>
              <param name="Z" type="float"/>
            </accessor>
          </technique_common>
        </source>
        <source id="Mesh_004-mesh-normals">
          <float_array id="Mesh_004-mesh-normals-array" count="252">7.97881e-7 -4.94558e-7 -1 -0.9231581 -2.09612e-7 -0.3844208 -0.9231581 1.84643e-7 0.3844208 0 4.81972e-7 1 0.9231581 1.89716e-7 0.3844208 0.923158 -2.40668e-7 -0.3844208 0 1 5.96394e-7 0 1 -5.964e-7 0 1 0 0 1 -5.96394e-7 0 -1 4.77115e-6 0 -1 0 0 -1 4.7712e-6 0 -1 -4.77115e-6 -0.9143674 -0.4048855 -7.76667e-5 -0.68917 -0.7245985 0.001314997 -0.7079748 -0.7061349 0.01204824 -0.6891551 -0.7246127 0.00134164 -0.3584485 -0.9335488 -0.001194119 -0.3827742 -0.9237805 0.01066988 -0.3584259 -0.9335575 -0.001187503 0.02665215 -0.9996262 -0.006113648 5.26704e-4 -0.9999809 0.006154477 0.02663338 -0.9996265 -0.006139755 0.4069179 -0.913403 -0.01062172 0.3829186 -0.9237813 0.001197874 0.4069233 -0.9134006 -0.01062196 0.7248494 -0.6888027 -0.0120114 0.7065699 -0.7076421 -0.001310586 0.7248513 -0.6888008 -0.01200348 0.9329178 -0.3599643 -0.009495794 0.9231409 -0.3844619 6.14226e-5 0.9329004 -0.3599644 -0.01106834 0.9997034 0.0239287 -0.004552781 0.9999865 -0.002522647 0.004551589 0.9996961 0.02392566 -0.005937278 0.9143719 0.4048755 -8.74307e-5 0.9247179 0.3805335 0.009534418 0.9143707 0.4048781 -7.88765e-5 0.689176 0.7245929 0.001306295 0.7079803 0.7061296 0.01204174 0.689152 0.7246156 0.001335382 0.3584444 0.9335504 -0.001205563 0.3827702 0.9237821 0.010661 0.3584145 0.9335619 -0.001207828 -0.02666425 0.9996257 -0.00613594 -4.90919e-4 0.9999811 0.006130635 -0.02667373 0.9996253 -0.006153285 -0.4069117 0.9134057 -0.01063215 -0.3829134 0.9237836 0.001161336 -0.4069281 0.9133986 -0.01061123 -0.7248522 0.6887996 -0.01202803 -0.7065727 0.7076392 -0.001326501 -0.7248544 0.6887973 -0.01201832 -0.9329195 0.3599597 -0.009503662 -0.9231426 0.3844578 5.33834e-5 0 -4.83768e-7 -1 -0.9231581 -1.53363e-7 -0.3844209 -0.9231581 2.30044e-7 0.3844208 0 4.81966e-7 1 0.9231581 1.53362e-7 0.3844208 0.9231581 -1.53363e-7 -0.3844209 0 -5.46493e-7 -1 0 -5.46492e-7 -1 -0.7200951 1.71363e-5 -0.6938754 -0.720095 -2.17894e-5 -0.6938756 -0.7200952 0 -0.6938754 0.6192455 -5.64456e-5 -0.7851974 0 -2.83367e-7 -1 0.7200974 2.22027e-6 -0.6938731 0.9094287 2.34889e-6 -0.4158598 0 -5.46491e-7 -1 0 -5.46486e-7 -1 -0.7200961 0 -0.6938744 -0.7200963 -1.60702e-5 -0.6938742 -0.7200963 4.30942e-5 -0.6938743 0.6192455 2.28364e-5 -0.7851974 0.6192451 -6.83001e-4 -0.7851974 0 -2.83364e-7 -1 0.7200978 1.50226e-5 -0.6938726 0.7200974 -1.88393e-6 -0.6938729 0.9094288 -1.99689e-6 -0.4158597 0 -5.46489e-7 -1 0 -5.46491e-7 -1</float_array>
          <technique_common>
            <accessor source="#Mesh_004-mesh-normals-array" count="84" stride="3">
              <param name="X" type="float"/>
              <param name="Y" type="float"/>
              <param name="Z" type="float"/>
            </accessor>
          </technique_common>
        </source>
        <source id="Mesh_004-mesh-map-0">
          <float_array id="Mesh_004-mesh-map-0-array" count="312">1.666698 -2.555556 1.333365 3.555556 1.333365 -2.555556 3.17991e-5 -2.555556 -0.3333016 3.555556 -0.3333016 -2.555556 0.3333652 -2.555556 3.17991e-5 3.555556 3.17991e-5 -2.555556 0.6666985 -2.555556 0.3333652 3.555556 0.3333652 -2.555556 1.000032 -2.555556 0.6666985 3.555556 0.6666985 -2.555556 1.333365 -2.555556 1.000032 3.555556 1.000032 -2.555556 1.666698 -2.555556 0.4999682 -2.555556 1.333365 -2.555556 3.17991e-5 -2.555556 0.4999682 -2.555556 -0.3333016 -2.555556 0.3333652 -2.555556 0.4999682 -2.555556 3.17991e-5 -2.555556 0.6666985 -2.555556 0.4999682 -2.555556 0.3333652 -2.555556 1.000032 -2.555556 0.4999682 -2.555556 0.6666985 -2.555556 1.333365 -2.555556 0.4999682 -2.555556 1.000032 -2.555556 1.333365 3.555556 2.499968 3.555556 1.666698 3.555556 -0.3333016 3.555556 0.4999682 3.555556 3.17991e-5 3.555556 3.17991e-5 3.555556 0.4999682 3.555556 0.3333652 3.555556 0.3333652 3.555556 0.4999682 3.555556 0.6666985 3.555556 0.6666985 3.555556 0.4999682 3.555556 1.000032 3.555556 1.000032 3.555556 0.4999682 3.555556 1.333365 3.555556 0.8417162 0.1863104 0.8417162 0.07576 0.6901672 0.07576 0.8417162 0.07576 0.8417162 0.001892626 0.6901672 0.001892626 0.6887745 0.6355254 0.6887745 0.7659283 0.8403236 0.7659283 0.6887745 0.7659283 0.6887745 0.8963313 0.8403236 0.8963313 0.9980081 0.631534 0.9980081 0.5576668 0.8464589 0.5576668 0.9980081 0.5576668 0.9980081 0.4471164 0.8464589 0.4471164 0.9980081 0.4471164 0.9980081 0.3167134 0.8464589 0.3167134 0.9980081 0.3167134 0.9980081 0.1863104 0.8464589 0.1863104 0.9980081 0.1863104 0.9980081 0.07576 0.8464589 0.07576 0.9980081 0.07576 0.9980081 0.001892626 0.8464589 0.001892626 0.6826392 0.9482091 0.6826392 0.8178061 0.53109 0.8178061 0.6826392 0.8178061 0.6826392 0.6874031 0.53109 0.6874031 0.8417162 0.631534 0.8417162 0.5576666 0.6901672 0.5576666 0.8417162 0.5576666 0.8417162 0.4471163 0.6901672 0.4471163 1.666698 -2.555556 1.666698 3.555556 1.333365 3.555556 3.17991e-5 -2.555556 3.17991e-5 3.555556 -0.3333016 3.555556 0.3333652 -2.555556 0.3333652 3.555556 3.17991e-5 3.555556 0.6666985 -2.555556 0.6666985 3.555556 0.3333652 3.555556 1.000032 -2.555556 1.000032 3.555556 0.6666985 3.555556 1.333365 -2.555556 1.333365 3.555556 1.000032 3.555556 0.142857 1 0 0 0 1 0.2857143 1 0.142857 0 0.142857 1 0.2857143 1 0.4285715 0 0.2857143 0 0.5714285 1 0.4285715 0 0.4285715 1 0.7142857 1 0.5714285 0 0.5714285 1 0.8571429 1 0.7142857 0 0.7142857 1 1 1 0.8571429 0 0.8571429 1 0.142857 1 0.142857 0 0 0 0.2857143 1 0.2857143 0 0.142857 0 0.2857143 1 0.4285715 1 0.4285715 0 0.5714285 1 0.5714285 0 0.4285715 0 0.7142857 1 0.7142857 0 0.5714285 0 0.8571429 1 0.8571429 0 0.7142857 0 1 1 1 0 0.8571429 0</float_array>
          <technique_common>
            <accessor source="#Mesh_004-mesh-map-0-array" count="156" stride="2">
              <param name="S" type="float"/>
              <param name="T" type="float"/>
            </accessor>
          </technique_common>
        </source>
        <vertices id="Mesh_004-mesh-vertices">
          <input semantic="POSITION" source="#Mesh_004-mesh-positions"/>
        </vertices>
        <lines count="4">
          <input semantic="VERTEX" source="#Mesh_004-mesh-vertices" offset="0"/>
          <p>16 0 31 0 31 15 31 30</p>
        </lines>
        <triangles material="Metal_004-material" count="38">
          <input semantic="VERTEX" source="#Mesh_004-mesh-vertices" offset="0"/>
          <input semantic="NORMAL" source="#Mesh_004-mesh-normals" offset="1"/>
          <input semantic="TEXCOORD" source="#Mesh_004-mesh-map-0" offset="2" set="0"/>
          <p>49 0 0 54 0 1 48 0 2 50 1 3 55 1 4 49 1 5 51 2 6 56 2 7 50 2 8 52 3 9 57 3 10 51 3 11 53 4 12 58 4 13 52 4 14 48 5 15 59 5 16 53 5 17 49 6 18 60 6 19 48 6 20 50 7 21 60 7 22 49 7 23 51 8 24 60 8 25 50 8 26 52 9 27 60 9 28 51 9 29 53 8 30 60 8 31 52 8 32 48 8 33 60 8 34 53 8 35 54 10 36 61 10 37 55 10 38 55 11 39 61 11 40 56 11 41 56 12 42 61 12 43 57 12 44 57 13 45 61 13 46 58 13 47 58 11 48 61 11 49 59 11 50 59 11 51 61 11 52 54 11 53 16 14 54 17 15 55 1 16 56 17 17 57 18 18 58 2 19 59 18 20 60 19 21 61 3 22 62 19 23 63 20 24 64 4 25 65 20 26 66 21 27 67 5 28 68 21 29 69 22 30 70 6 31 71 22 32 72 23 33 73 7 34 74 23 35 75 24 36 76 8 37 77 24 38 78 25 39 79 9 40 80 25 41 81 26 42 82 10 43 83 26 44 84 27 45 85 11 46 86 27 47 87 28 48 88 12 49 89 28 50 90 29 51 91 13 52 92 29 53 93 30 54 94 14 55 95 49 56 96 55 56 97 54 56 98 50 57 99 56 57 100 55 57 101 51 58 102 57 58 103 56 58 104 52 59 105 58 59 106 57 59 107 53 60 108 59 60 109 58 60 110 48 61 111 54 61 112 59 61 113</p>
        </triangles>
        <triangles material="SmallPart_004-material" count="14">
          <input semantic="VERTEX" source="#Mesh_004-mesh-vertices" offset="0"/>
          <input semantic="NORMAL" source="#Mesh_004-mesh-normals" offset="1"/>
          <input semantic="TEXCOORD" source="#Mesh_004-mesh-map-0" offset="2" set="0"/>
          <p>33 62 114 40 62 115 32 62 116 34 63 117 41 63 118 33 63 119 34 64 120 43 65 121 42 66 122 36 67 123 43 68 124 35 68 125 37 69 126 44 70 127 36 70 128 38 62 129 45 62 130 37 62 131 39 71 132 46 71 133 38 71 134 33 72 135 41 72 136 40 72 137 34 63 138 42 63 139 41 63 140 34 73 141 35 74 142 43 75 143 36 76 144 44 77 145 43 78 146 37 79 147 45 80 148 44 81 149 38 82 150 46 82 151 45 82 152 39 83 153 47 83 154 46 83 155</p>
        </triangles>
      </mesh>
    </geometry>
  </library_geometries>
  <library_visual_scenes>
    <visual_scene id="Scene" name="Scene">
      <node id="Plane" name="Plane" type="NODE">
        <matrix sid="transform">0.2969116 0 0 -3.111105 0 0.2969116 0 0 0 0 1 0 0 0 0 1</matrix>
        <instance_geometry url="#Plane-mesh" name="Plane">
          <bind_material>
            <technique_common>
              <instance_material symbol="park-material" target="#park-material">
                <bind_vertex_input semantic="UVMap" input_semantic="TEXCOORD" input_set="0"/>
              </instance_material>
            </technique_common>
          </bind_material>
        </instance_geometry>
      </node>
      <node id="transform3" name="transform3" type="NODE">
        <matrix sid="transform">1 0 0 0 0 1 0 0 0 0 1 0 0 0 0 1</matrix>
      </node>
      <node id="transform1" name="transform1" type="NODE">
        <matrix sid="transform">1 0 0 0 0 1 0 0 0 0 1 0 0 0 0 1</matrix>
      </node>
      <node id="transform4" name="transform4" type="NODE">
        <matrix sid="transform">1 0 0 0 0 1 0 0 0 0 1 0 0 0 0 1</matrix>
      </node>
      <node id="transform2" name="transform2" type="NODE">
        <matrix sid="transform">1 0 0 0 0 1 0 0 0 0 1 0 0 0 0 1</matrix>
      </node>
      <node id="transform7" name="transform7" type="NODE">
        <matrix sid="transform">1 0 0 0 0 1 0 0 0 0 1 0 0 0 0 1</matrix>
      </node>
      <node id="transform6" name="transform6" type="NODE">
        <matrix sid="transform">1 0 0 0 0 1 0 0 0 0 1 0 0 0 0 1</matrix>
      </node>
      <node id="transform9" name="transform9" type="NODE">
        <matrix sid="transform">1 0 0 0 0 1 0 0 0 0 1 0 0 0 0 1</matrix>
      </node>
      <node id="transform8" name="transform8" type="NODE">
        <matrix sid="transform">1 0 0 0 0 1 0 0 0 0 1 0 0 0 0 1</matrix>
      </node>
      <node id="transform3_001" name="transform3.001" type="NODE">
        <matrix sid="transform">1 0 0 0 0 1 0 0 0 0 1 0 0 0 0 1</matrix>
      </node>
      <node id="transform1_001" name="transform1.001" type="NODE">
        <matrix sid="transform">1 0 0 0 0 1 0 0 0 0 1 0 0 0 0 1</matrix>
      </node>
      <node id="transform4_001" name="transform4.001" type="NODE">
        <matrix sid="transform">1 0 0 0 0 1 0 0 0 0 1 0 0 0 0 1</matrix>
      </node>
      <node id="transform2_001" name="transform2.001" type="NODE">
        <matrix sid="transform">1 0 0 0 0 1 0 0 0 0 1 0 0 0 0 1</matrix>
      </node>
      <node id="transform7_001" name="transform7.001" type="NODE">
        <matrix sid="transform">1 0 0 0 0 1 0 0 0 0 1 0 0 0 0 1</matrix>
      </node>
      <node id="transform6_001" name="transform6.001" type="NODE">
        <matrix sid="transform">1 0 0 0 0 1 0 0 0 0 1 0 0 0 0 1</matrix>
      </node>
      <node id="transform9_001" name="transform9.001" type="NODE">
        <matrix sid="transform">1 0 0 0 0 1 0 0 0 0 1 0 0 0 0 1</matrix>
      </node>
      <node id="transform8_001" name="transform8.001" type="NODE">
        <matrix sid="transform">1 0 0 0 0 1 0 0 0 0 1 0 0 0 0 1</matrix>
      </node>
      <node id="Sign_Circle_005" name="Sign_Circle.005" type="NODE">
        <matrix sid="transform">0.3098855 0 0 1.378473 0 2.05454e-8 -0.01 -0.01602232 0 0.2721318 7.54979e-10 -0.3601365 0 0 0 1</matrix>
        <instance_geometry url="#Mesh_004-mesh" name="Sign_Circle.005">
          <bind_material>
            <technique_common>
              <instance_material symbol="Metal_004-material" target="#Metal_004-material">
                <bind_vertex_input semantic="Mesh_002-mesh-map-0" input_semantic="TEXCOORD" input_set="0"/>
              </instance_material>
              <instance_material symbol="solsag-material" target="#solsag-material">
                <bind_vertex_input semantic="Mesh_002-mesh-map-0" input_semantic="TEXCOORD" input_set="0"/>
              </instance_material>
              <instance_material symbol="SmallPart_004-material" target="#SmallPart_004-material">
                <bind_vertex_input semantic="Mesh_002-mesh-map-0" input_semantic="TEXCOORD" input_set="0"/>
              </instance_material>
            </technique_common>
          </bind_material>
        </instance_geometry>
      </node>
    </visual_scene>
  </library_visual_scenes>
  <scene>
    <instance_visual_scene url="#Scene"/>
  </scene>
</COLLADA>