<?xml version="1.0" encoding="utf-8"?>
<COLLADA xmlns="http://www.collada.org/2005/11/COLLADASchema" version="1.4.1" xmlns:xsi="http://www.w3.org/2001/XMLSchema-instance">
  <asset>
    <contributor>
      <author>Blender User</author>
      <authoring_tool>Blender 4.3.2 commit date:2024-12-16, commit time:21:10, hash:32f5fdce0a0a</authoring_tool>
    </contributor>
    <created>2025-07-09T14:53:57</created>
    <modified>2025-07-09T14:53:57</modified>
    <unit name="meter" meter="1"/>
    <up_axis>Z_UP</up_axis>
  </asset>
  <library_effects>
    <effect id="StopLight_003-effect">
      <profile_COMMON>
        <newparam sid="stop_light_png-surface">
          <surface type="2D">
            <init_from>stop_light_png</init_from>
          </surface>
        </newparam>
        <newparam sid="stop_light_png-sampler">
          <sampler2D>
            <source>stop_light_png-surface</source>
          </sampler2D>
        </newparam>
        <technique sid="common">
          <lambert>
            <emission>
              <color sid="emission">0 0 0 1</color>
            </emission>
            <diffuse>
              <texture texture="stop_light_png-sampler" texcoord="UVMap"/>
            </diffuse>
            <index_of_refraction>
              <float sid="ior">1.5</float>
            </index_of_refraction>
          </lambert>
        </technique>
      </profile_COMMON>
    </effect>
  </library_effects>
  <library_images>
    <image id="stop_light_png" name="stop_light_png">
      <init_from>stop_light.png</init_from>
    </image>
  </library_images>
  <library_materials>
    <material id="StopLight_003-material" name="StopLight.003">
      <instance_effect url="#StopLight_003-effect"/>
    </material>
  </library_materials>
  <library_geometries>
    <geometry id="stop_light_001-mesh" name="stop_light.001">
      <mesh>
        <source id="stop_light_001-mesh-positions">
          <float_array id="stop_light_001-mesh-positions-array" count="504">-11.6631 -2.2686 -78.0097 0 -2.2686 -78.0097 0 -12.7 -78.0097 -12.7 -12.7 -78.0097 0 -12.7 -1.8097 0 -2.2686 -1.8097 -11.6631 -2.2686 -1.8097 -12.7 -12.7 -1.8097 -9.481101 -0.2919 -1.8097 -9.481101 -0.2919 -78.0097 0 -0.2919 -1.8097 -8.7695 4.4409 -1.8097 -8.7695 4.4409 -78.0097 0 4.4409 -1.8097 0 4.4409 -78.0097 0 -0.2919 -78.0097 -5.9879 -13.91 -24.881 -5.9879 -10.9214 -24.881 0 -10.9214 -26.4854 0 -13.5511 -26.4854 0 -13.9006 -25.0584 -5.2744 -14.4248 -23.6451 -5.2744 -10.9214 -23.6451 0 -10.9214 -25.0584 -10.3713 -15.8099 -20.4975 -10.3713 -10.9214 -20.4975 -9.1355 -16.25 -19.784 -9.1355 -10.9214 -19.784 -11.9758 -20.1826 -14.5097 -11.9758 -10.9214 -14.5097 -10.5487 -20.1826 -14.5351 -10.5487 -10.9214 -14.5097 -10.3713 -26.7959 -8.5218 -10.3713 -10.9214 -8.5218 -9.1355 -26.481 -9.235301 -9.1355 -10.9214 -9.235301 -5.9879 -28.7126 -4.1384 -5.9879 -10.9214 -4.1384 -5.2744 -28.451 -5.3742 -5.2744 -10.9214 -5.3742 0 -28.7126 -2.5339 0 -10.9214 -2.5339 0 -28.7126 -3.9609 0 -10.9214 -3.9609 -5.9879 -13.91 -50.2556 -5.9879 -10.9214 -50.2556 0 -10.9214 -51.86 0 -13.5511 -51.86 0 -13.9006 -50.433 -5.2744 -14.4248 -49.0197 -5.2744 -10.9214 -49.0197 0 -10.9214 -50.433 -10.3713 -15.8099 -45.8721 -10.3713 -10.9214 -45.8721 -9.1355 -16.25 -45.1586 -9.1355 -10.9214 -45.1586 -11.9758 -20.1826 -39.8843 -11.9758 -10.9214 -39.8843 -10.5487 -20.1826 -39.9097 -10.5487 -10.9214 -39.8843 -10.3713 -26.7959 -33.8964 -10.3713 -10.9214 -33.8964 -9.1355 -26.481 -34.6099 -9.1355 -10.9214 -34.6099 -5.9879 -28.7126 -29.513 -5.9879 -10.9214 -29.513 -5.2744 -28.451 -30.7488 -5.2744 -10.9214 -30.7488 0 -28.7126 -27.9085 0 -10.9214 -27.9085 0 -28.7126 -29.3355 0 -10.9214 -29.3355 -5.9879 -13.91 -75.7064 -5.9879 -10.9214 -75.7064 0 -10.9214 -77.3108 0 -13.5511 -77.3108 0 -13.9006 -75.8838 -5.2744 -14.4248 -74.4705 -5.2744 -10.9214 -74.4705 0 -10.9214 -75.8838 -10.3713 -15.8099 -71.3229 -10.3713 -10.9214 -71.3229 -9.1355 -16.25 -70.6094 -9.1355 -10.9214 -70.6094 -11.9758 -20.1826 -65.3351 -11.9758 -10.9214 -65.3351 -10.5487 -20.1826 -65.3605 -10.5487 -10.9214 -65.3351 -10.3713 -26.7959 -59.3472 -10.3713 -10.9214 -59.3472 -9.1355 -26.481 -60.0607 -9.1355 -10.9214 -60.0607 -5.9879 -28.7126 -54.9638 -5.9879 -10.9214 -54.9638 -5.2744 -28.451 -56.1996 -5.2744 -10.9214 -56.1996 0 -28.7126 -53.3593 0 -10.9214 -53.3593 0 -28.7126 -54.7863 0 -10.9214 -54.7863 11.6631 -2.2686 -78.0097 12.7 -12.7 -78.0097 12.7 -12.7 -1.8097 11.6631 -2.2686 -1.8097 9.481101 -0.2919 -78.0097 9.481101 -0.2919 -1.8097 8.7695 4.4409 -78.0097 8.7695 4.4409 -1.8097 5.9879 -13.91 -24.881 5.9879 -10.9214 -24.881 5.2744 -14.4248 -23.6451 5.2744 -10.9214 -23.6451 10.3713 -10.9214 -20.4975 10.3713 -15.8099 -20.4975 9.1355 -16.25 -19.784 9.1355 -10.9214 -19.784 11.9758 -10.9214 -14.5097 11.9758 -20.1826 -14.5097 10.5487 -20.1826 -14.5351 10.5487 -10.9214 -14.5097 10.3713 -10.9214 -8.5218 10.3713 -26.7959 -8.5218 9.1355 -26.481 -9.235301 9.1355 -10.9214 -9.235301 5.9879 -10.9214 -4.1384 5.9879 -28.7126 -4.1384 5.2744 -28.451 -5.3742 5.2744 -10.9214 -5.3742 5.9879 -13.91 -50.2556 5.9879 -10.9214 -50.2556 5.2744 -14.4248 -49.0197 5.2744 -10.9214 -49.0197 10.3713 -10.9214 -45.8721 10.3713 -15.8099 -45.8721 9.1355 -16.25 -45.1586 9.1355 -10.9214 -45.1586 11.9758 -10.9214 -39.8843 11.9758 -20.1826 -39.8843 10.5487 -20.1826 -39.9097 10.5487 -10.9214 -39.8843 10.3713 -10.9214 -33.8964 10.3713 -26.7959 -33.8964 9.1355 -26.481 -34.6099 9.1355 -10.9214 -34.6099 5.9879 -10.9214 -29.513 5.9879 -28.7126 -29.513 5.2744 -28.451 -30.7488 5.2744 -10.9214 -30.7488 5.9879 -13.91 -75.7064 5.9879 -10.9214 -75.7064 5.2744 -14.4248 -74.4705 5.2744 -10.9214 -74.4705 10.3713 -10.9214 -71.3229 10.3713 -15.8099 -71.3229 9.1355 -16.25 -70.6094 9.1355 -10.9214 -70.6094 11.9758 -10.9214 -65.3351 11.9758 -20.1826 -65.3351 10.5487 -20.1826 -65.3605 10.5487 -10.9214 -65.3351 10.3713 -10.9214 -59.3472 10.3713 -26.7959 -59.3472 9.1355 -26.481 -60.0607 9.1355 -10.9214 -60.0607 5.9879 -10.9214 -54.9638 5.9879 -28.7126 -54.9638 5.2744 -28.451 -56.1996 5.2744 -10.9214 -56.1996</float_array>
          <technique_common>
            <accessor source="#stop_light_001-mesh-positions-array" count="168" stride="3">
              <param name="X" type="float"/>
              <param name="Y" type="float"/>
              <param name="Z" type="float"/>
            </accessor>
          </technique_common>
        </source>
        <source id="stop_light_001-mesh-normals">
          <float_array id="stop_light_001-mesh-normals-array" count="648">0 0 -1 0 0 1 0 -1 0 -0.995096 0.09891426 0 -0.995096 0.09891426 0 -0.995096 0.09891426 0 -0.995096 0.09891426 0 -0.6713818 0.7411117 0 -0.6713818 0.7411117 0 -0.9888848 0.1486836 0 -0.9888848 0.1486839 0 -0.9888848 0.1486836 0 0 1 0 -0.5241808 0 -0.851607 -0.500006 0 -0.866022 0 0 -1 0 0 -1 0 -0.9650535 -0.2620533 0 -0.9712921 -0.2378898 0.001541554 -0.9269529 -0.3751747 -0.01445645 -0.9224867 -0.3857582 0.5000044 0 0.866023 0.5285232 0 0.8489189 -0.8991017 0 -0.4377401 -0.8660264 0 -0.4999983 0.00606954 -0.8524606 -0.5227563 -0.01298099 -0.8573648 -0.5145455 0.8660269 0 0.4999974 0.9003561 -2.98458e-4 0.4351539 -0.9934844 0 0.1139684 -1 0 -8.98648e-6 -0.008679449 -0.7325991 -0.680605 -0.02462118 -0.7319208 -0.6809448 1 1.81608e-4 -2.65977e-4 0.9932906 -9.04432e-5 -0.1156458 -0.8037331 0 0.5949901 -0.8660271 0 0.4999971 -0.1224704 -0.800791 -0.5862891 -0.1309409 -0.8206683 -0.5561997 0.8661301 2.4237e-4 -0.4998186 0.7992045 0 -0.6010593 -0.4753248 0 0.8798104 -0.5000093 0 0.8660201 -0.05922961 -0.9655531 -0.2533756 -0.06453692 -0.9724475 -0.224011 0.4999961 0 -0.8660277 0.4675147 0 -0.8839853 0 -0.9996532 -0.02633601 0 0 -1 -0.5241807 0 -0.8516071 -0.5000055 0 -0.8660222 0 0 -1 -1.23143e-7 0 -1 0 -0.9650536 -0.262053 0 -0.9712923 -0.2378895 0.001541435 -0.9269529 -0.3751746 -0.0144568 -0.9224867 -0.3857582 0.5000045 0 0.866023 0.5285231 0 0.8489189 0 0 1 -0.8991017 0 -0.4377401 -0.8660264 0 -0.4999983 0.006068885 -0.8524607 -0.5227562 -0.01298177 -0.8573651 -0.5145453 0.866027 0 0.4999974 0.9003561 -2.98395e-4 0.4351539 -0.9934844 0 0.1139686 -1 0 -8.86863e-6 -0.008678197 -0.7325989 -0.6806052 -0.02461987 -0.7319207 -0.680945 1 1.81569e-4 -2.65958e-4 0.9932906 -9.0424e-5 -0.1156459 -0.8037331 0 0.59499 -0.8660272 0 0.499997 -0.1224709 -0.800791 -0.5862891 -0.1309413 -0.8206683 -0.5561996 0.8661299 2.42319e-4 -0.4998188 0.7992046 0 -0.6010591 -0.4753248 0 0.8798105 -0.5000094 0 0.86602 -0.05922973 -0.9655531 -0.2533756 -0.06453704 -0.9724475 -0.224011 0.4999959 0 -0.8660278 0.4675151 0 -0.8839852 0 -0.9996532 -0.02633601 0 0 -1 -2.83626e-7 0 -1 -0.524181 0 -0.8516069 -0.5000061 0 -0.8660219 0 0 -1 -1.23143e-7 0 -1 0 -0.9650536 -0.262053 0.001543164 -0.9269529 -0.3751746 -0.01445561 -0.9224867 -0.3857582 0.5000042 0 0.866023 -0.8991016 0 -0.43774 -0.8660262 0 -0.4999988 0.006070911 -0.8524608 -0.5227562 -0.01298111 -0.8573651 -0.5145453 0.9003561 -2.98394e-4 0.4351539 -0.9934844 0 0.1139683 -1 0 -9.19273e-6 -0.008679449 -0.7325989 -0.6806053 -0.02462202 -0.7319207 -0.6809449 1 1.8157e-4 -2.66262e-4 0.9932905 -9.04236e-5 -0.1156461 -0.8037332 0 0.59499 -0.122473 -0.8007907 -0.5862889 -0.1309435 -0.8206681 -0.5561994 0.8661299 2.42319e-4 -0.499819 0.7992045 0 -0.6010592 -0.4753245 0 0.8798106 -0.5000093 0 0.86602 -0.05922937 -0.9655531 -0.2533754 -0.06453663 -0.9724476 -0.2240107 0.4999959 0 -0.8660278 0.4675148 0 -0.8839853 0 -0.9996532 -0.02633601 0 0 -1 1.41813e-7 0 -1 0.995096 0.09891426 0 0.995096 0.09891426 0 0.995096 0.09891426 0 0.995096 0.09891426 0 0.6713818 0.7411117 0 0.6713818 0.7411117 0 0.9888848 0.1486836 0 0.9888848 0.1486836 0 0.9888848 0.1486839 0 0.524181 0 -0.851607 0.5000061 0 -0.866022 0.01445645 -0.9224868 -0.3857578 -0.001541554 -0.926953 -0.3751744 -0.5000044 0 0.866023 -0.5285233 0 0.8489189 0.8660264 0 -0.4999983 0.8991017 0 -0.4377401 0.01298093 -0.8573649 -0.5145453 -0.006069481 -0.8524607 -0.5227562 -0.9003561 -2.98428e-4 0.435154 -0.8660269 0 0.4999974 1 0 -8.98648e-6 0.9934844 0 0.1139684 0.02462118 -0.7319207 -0.6809449 0.008679509 -0.7325991 -0.6806051 -0.9932906 -9.04341e-5 -0.1156458 -1 1.81589e-4 -2.65958e-4 0.8660271 0 0.4999971 0.8037331 0 0.5949901 0.1309408 -0.8206682 -0.5561999 0.1224703 -0.8007909 -0.5862893 -0.7992045 0 -0.6010593 -0.8661301 2.42346e-4 -0.4998186 0.5000093 0 0.8660201 0.4753248 0 0.8798105 0.06453692 -0.9724475 -0.224011 0.05922961 -0.9655531 -0.2533755 -0.4675147 0 -0.8839854 -0.4999961 0 -0.8660278 0.5241807 0 -0.8516071 0.5000055 0 -0.8660222 0.01445657 -0.9224869 -0.3857578 -0.001541674 -0.926953 -0.3751743 -0.5000045 0 0.8660228 -0.5285233 0 0.8489188 0.8660264 0 -0.4999983 0.8991017 0 -0.4377401 0.01298099 -0.8573651 -0.5145452 -0.006069719 -0.8524608 -0.522756 -0.9003562 -2.9841e-4 0.4351538 -0.866027 0 0.4999973 1 0 -8.87845e-6 0.9934844 0 0.1139686 0.02461987 -0.7319207 -0.680945 0.008678138 -0.7325989 -0.6806054 -0.9932906 -9.04288e-5 -0.1156459 -1 1.81579e-4 -2.65958e-4 0.8660271 0 0.499997 0.1309414 -0.8206682 -0.5561996 0.122471 -0.8007909 -0.5862891 -0.7992045 0 -0.6010592 -0.86613 2.42332e-4 -0.4998188 0.5000094 0 0.86602 0.4753247 0 0.8798105 0.06453698 -0.9724475 -0.224011 0.05922973 -0.9655531 -0.2533755 -0.4675152 0 -0.8839851 -0.4999959 0 -0.8660278 0.524181 0 -0.851607 0.5000061 0 -0.8660219 0.01445609 -0.9224869 -0.3857579 -0.001542508 -0.926953 -0.3751743 -0.5000042 0 0.866023 0.8660262 0 -0.4999988 0.8991016 0 -0.43774 0.01298099 -0.8573651 -0.5145452 -0.006070733 -0.8524608 -0.522756 -0.9003563 -2.9841e-4 0.4351536 -0.8660271 0 0.4999971 1 0 -9.15345e-6 0.9934844 0 0.1139685 0.02462196 -0.7319206 -0.6809449 0.008679449 -0.7325989 -0.6806054 -0.9932905 -9.04284e-5 -0.1156463 -1 1.81579e-4 -2.66262e-4 0.8660272 0 0.499997 0.8037332 0 0.5949898 0.130943 -0.8206681 -0.5561996 0.1224724 -0.8007907 -0.586289 -0.7992045 0 -0.6010593 -0.8661299 2.42332e-4 -0.499819 0.5000093 0 0.86602 0.4753246 0 0.8798106 0.06453669 -0.9724476 -0.2240107 0.05922949 -0.9655531 -0.2533753 -0.4675147 0 -0.8839853</float_array>
          <technique_common>
            <accessor source="#stop_light_001-mesh-normals-array" count="216" stride="3">
              <param name="X" type="float"/>
              <param name="Y" type="float"/>
              <param name="Z" type="float"/>
            </accessor>
          </technique_common>
        </source>
        <source id="stop_light_001-mesh-map-0">
          <float_array id="stop_light_001-mesh-map-0-array" count="1560">0.8628 0.08629995 0.9901 0.08629995 0.9901 0.2002 0.9901 0.2002 0.8515 0.2002 0.8628 0.08629995 0.8495 0.4296 0.8495 0.3157 0.9769 0.3157 0.9769 0.3157 0.9882 0.4296 0.8495 0.4296 0.001999974 0.001999974 0.8338 0.001999974 0.8338 0.1406 0.8338 0.1406 0.001999974 0.1406 0.001999974 0.001999974 0.001999974 0.2551 0.001999974 0.1406 0.8338 0.1406 0.8338 0.1406 0.8338 0.2551 0.001999974 0.2551 0.001999974 0.2551 0.8338 0.2551 0.8338 0.2872 0.8338 0.2872 0.001999974 0.2872 0.001999974 0.2551 0.8495 0.3157 0.8495 0.2941 0.953 0.2941 0.953 0.2941 0.9769 0.3157 0.8495 0.3157 0.001999974 0.2872 0.8338 0.2872 0.8338 0.3395 0.8338 0.3395 0.001999974 0.3395 0.001999974 0.2872 0.8495 0.2941 0.8495 0.2424 0.9453 0.2424 0.9453 0.2424 0.953 0.2941 0.8495 0.2941 0.001999974 0.3395 0.8338 0.3395 0.8338 0.4352 0.8338 0.4352 0.001999974 0.4352 0.001999974 0.3395 0.9901 0.08629995 0.8628 0.08629995 0.8866 0.06479996 0.8866 0.06479996 0.9901 0.06479996 0.9901 0.08629995 0.9901 0.06479996 0.8866 0.06479996 0.8944 0.01309996 0.8944 0.01309996 0.9901 0.01309996 0.9901 0.06479996 0.06299996 0.6722 0.06299996 0.6941 0.001999974 0.6941 0.001999974 0.6941 0.001999974 0.6762 0.06299996 0.6722 0.5701 0.8805 0.5541 0.8807 0.5372 0.8233 0.5372 0.8233 0.5517 0.8153 0.5701 0.8805 0.487 0.4588 0.487 0.4865 0.4276 0.4806 0.4276 0.4806 0.4276 0.4588 0.487 0.4588 0.06299996 0.6941 0.06299996 0.6722 0.1263999 0.6509 0.1263999 0.6509 0.1263999 0.6941 0.06299996 0.6941 0.5517 0.8153 0.5372 0.8233 0.4901 0.7816 0.4901 0.7816 0.499 0.768 0.5517 0.8153 0.487 0.4865 0.487 0.4588 0.5463 0.4588 0.5463 0.4588 0.5463 0.507 0.487 0.4865 0.1263999 0.6941 0.1263999 0.6509 0.1927 0.6018 0.1927 0.6018 0.1927 0.6941 0.1263999 0.6941 0.499 0.768 0.4901 0.7816 0.4181 0.7671 0.4181 0.7671 0.4179 0.7515 0.499 0.768 0.5463 0.507 0.5463 0.4588 0.607 0.4588 0.607 0.4588 0.607 0.5511 0.5463 0.507 0.1927 0.6941 0.1927 0.6018 0.2605 0.5276 0.2605 0.5276 0.2605 0.6941 0.1927 0.6941 0.4179 0.7515 0.4181 0.7671 0.3286 0.7837 0.3286 0.7837 0.3207 0.7698 0.4179 0.7515 0.607 0.5511 0.607 0.4588 0.6642 0.4588 0.6642 0.4588 0.6642 0.6216 0.607 0.5511 0.2605 0.6941 0.2605 0.5276 0.3225 0.5061 0.3225 0.5061 0.3225 0.6941 0.2605 0.6941 0.3207 0.7698 0.3286 0.7837 0.2797 0.8239 0.2797 0.8239 0.2664 0.8153 0.3207 0.7698 0.6642 0.6216 0.6642 0.4588 0.7246 0.4588 0.7246 0.4588 0.7246 0.6437 0.6642 0.6216 0.3225 0.6941 0.3225 0.5061 0.3915 0.5061 0.3915 0.5061 0.3915 0.6941 0.3225 0.6941 0.2664 0.8153 0.2797 0.8239 0.2606 0.8805 0.2606 0.8805 0.2451 0.8796 0.2664 0.8153 0.7246 0.6437 0.7246 0.4588 0.7797 0.4588 0.7797 0.4588 0.7797 0.6467 0.7246 0.6437 0.3327 0.4672 0.3327 0.4453 0.3937 0.4453 0.3937 0.4453 0.3937 0.4632 0.3327 0.4672 0.8639 0.7753 0.8637 0.7593 0.9212 0.7423 0.9212 0.7423 0.9291 0.7568 0.8639 0.7753 0.4966 0.7078 0.4966 0.7355 0.4372 0.7296 0.4372 0.7296 0.4372 0.7078 0.4966 0.7078 0.3327 0.4453 0.3327 0.4672 0.2693 0.4885 0.2693 0.4885 0.2693 0.4453 0.3327 0.4453 0.9291 0.7568 0.9212 0.7423 0.9628 0.6953 0.9628 0.6953 0.9764 0.7042 0.9291 0.7568 0.4966 0.7355 0.4966 0.7078 0.5559 0.7078 0.5559 0.7078 0.5559 0.756 0.4966 0.7355 0.2693 0.4453 0.2693 0.4885 0.2029 0.5376 0.2029 0.5376 0.2029 0.4453 0.2693 0.4453 0.9764 0.7042 0.9628 0.6953 0.9773 0.6233 0.9773 0.6233 0.9929 0.6231 0.9764 0.7042 0.5559 0.756 0.5559 0.7078 0.6166 0.7078 0.6166 0.7078 0.6166 0.8001 0.5559 0.756 0.2029 0.4453 0.2029 0.5376 0.1352 0.6117 0.1352 0.6117 0.1352 0.4453 0.2029 0.4453 0.9929 0.6231 0.9773 0.6233 0.9608 0.5338 0.9608 0.5338 0.9746 0.5258 0.9929 0.6231 0.6166 0.8001 0.6166 0.7078 0.6738 0.7078 0.6738 0.7078 0.6738 0.8706 0.6166 0.8001 0.1352 0.4453 0.1352 0.6117 0.07319998 0.6332 0.07319998 0.6332 0.07319998 0.4453 0.1352 0.4453 0.9746 0.5258 0.9608 0.5338 0.9205 0.4848 0.9205 0.4848 0.9291 0.4715 0.9746 0.5258 0.6738 0.8706 0.6738 0.7078 0.7342 0.7078 0.7342 0.7078 0.7342 0.8927 0.6738 0.8706 0.07319998 0.4453 0.07319998 0.6332 0.004199981 0.6332 0.004199981 0.6332 0.004199981 0.4453 0.07319998 0.4453 0.9291 0.4715 0.9205 0.4848 0.864 0.4658 0.864 0.4658 0.8649 0.4502 0.9291 0.4715 0.7342 0.8927 0.7342 0.7078 0.7893 0.7078 0.7893 0.7078 0.7893 0.8957 0.7342 0.8927 0.3452 0.7289 0.3452 0.707 0.4062 0.707 0.4062 0.707 0.4062 0.7249 0.3452 0.7289 0.9358 0.5647 0.936 0.5808 0.8786 0.5977 0.8786 0.5977 0.8706 0.5832 0.9358 0.5647 0.7175 0.6931 0.7175 0.6654 0.7769 0.6713 0.7769 0.6713 0.7769 0.6931 0.7175 0.6931 0.3452 0.707 0.3452 0.7289 0.2818 0.7502 0.2818 0.7502 0.2818 0.707 0.3452 0.707 0.8706 0.5832 0.8786 0.5977 0.8369 0.6448 0.8369 0.6448 0.8233 0.6358 0.8706 0.5832 0.7175 0.6654 0.7175 0.6931 0.6582 0.6931 0.6582 0.6931 0.6582 0.645 0.7175 0.6654 0.2818 0.707 0.2818 0.7502 0.2154999 0.7993 0.2154999 0.7993 0.2154999 0.707 0.2818 0.707 0.8233 0.6358 0.8369 0.6448 0.8224 0.7168 0.8224 0.7168 0.8068 0.717 0.8233 0.6358 0.6582 0.645 0.6582 0.6931 0.5975 0.6931 0.5975 0.6931 0.5975 0.6009 0.6582 0.645 0.2154999 0.707 0.2154999 0.7993 0.1477 0.8734 0.1477 0.8734 0.1477 0.707 0.2154999 0.707 0.8068 0.717 0.8224 0.7168 0.839 0.8062 0.839 0.8062 0.8251 0.8142 0.8068 0.717 0.5975 0.6009 0.5975 0.6931 0.5403 0.6931 0.5403 0.6931 0.5403 0.5303 0.5975 0.6009 0.1477 0.707 0.1477 0.8734 0.08569997 0.8949 0.08569997 0.8949 0.08569997 0.707 0.1477 0.707 0.8251 0.8142 0.839 0.8062 0.8792 0.8552 0.8792 0.8552 0.8706 0.8685 0.8251 0.8142 0.5403 0.5303 0.5403 0.6931 0.4799 0.6931 0.4799 0.6931 0.4799 0.5082 0.5403 0.5303 0.08569997 0.707 0.08569997 0.8949 0.01669996 0.8949 0.01669996 0.8949 0.01669996 0.707 0.08569997 0.707 0.8706 0.8685 0.8792 0.8552 0.9358 0.8742 0.9358 0.8742 0.9349 0.8898 0.8706 0.8685 0.4799 0.5082 0.4799 0.6931 0.4248 0.6931 0.4248 0.6931 0.4248 0.5053 0.4799 0.5082 0.8628 0.08629995 0.8515 0.2002 0.9901 0.2002 0.9901 0.2002 0.9901 0.08629995 0.8628 0.08629995 0.8495 0.4296 0.9882 0.4296 0.9769 0.3157 0.9769 0.3157 0.8495 0.3157 0.8495 0.4296 0.001999974 0.001999974 0.001999974 0.1406 0.8338 0.1406 0.8338 0.1406 0.8338 0.001999974 0.001999974 0.001999974 0.001999974 0.2551 0.8338 0.2551 0.8338 0.1406 0.8338 0.1406 0.001999974 0.1406 0.001999974 0.2551 0.001999974 0.2551 0.001999974 0.2872 0.8338 0.2872 0.8338 0.2872 0.8338 0.2551 0.001999974 0.2551 0.8495 0.3157 0.9769 0.3157 0.953 0.2941 0.953 0.2941 0.8495 0.2941 0.8495 0.3157 0.001999974 0.2872 0.001999974 0.3395 0.8338 0.3395 0.8338 0.3395 0.8338 0.2872 0.001999974 0.2872 0.8495 0.2941 0.953 0.2941 0.9453 0.2424 0.9453 0.2424 0.8495 0.2424 0.8495 0.2941 0.001999974 0.3395 0.001999974 0.4352 0.8338 0.4352 0.8338 0.4352 0.8338 0.3395 0.001999974 0.3395 0.9901 0.08629995 0.9901 0.06479996 0.8866 0.06479996 0.8866 0.06479996 0.8628 0.08629995 0.9901 0.08629995 0.9901 0.06479996 0.9901 0.01309996 0.8944 0.01309996 0.8944 0.01309996 0.8866 0.06479996 0.9901 0.06479996 0.06299996 0.6722 0.001999974 0.6762 0.001999974 0.6941 0.001999974 0.6941 0.06299996 0.6941 0.06299996 0.6722 0.5701 0.8805 0.5517 0.8153 0.5372 0.8233 0.5372 0.8233 0.5541 0.8807 0.5701 0.8805 0.487 0.4588 0.4276 0.4588 0.4276 0.4806 0.4276 0.4806 0.487 0.4865 0.487 0.4588 0.06299996 0.6941 0.1263999 0.6941 0.1263999 0.6509 0.1263999 0.6509 0.06299996 0.6722 0.06299996 0.6941 0.5517 0.8153 0.499 0.768 0.4901 0.7816 0.4901 0.7816 0.5372 0.8233 0.5517 0.8153 0.487 0.4865 0.5463 0.507 0.5463 0.4588 0.5463 0.4588 0.487 0.4588 0.487 0.4865 0.1263999 0.6941 0.1927 0.6941 0.1927 0.6018 0.1927 0.6018 0.1263999 0.6509 0.1263999 0.6941 0.499 0.768 0.4179 0.7515 0.4181 0.7671 0.4181 0.7671 0.4901 0.7816 0.499 0.768 0.5463 0.507 0.607 0.5511 0.607 0.4588 0.607 0.4588 0.5463 0.4588 0.5463 0.507 0.1927 0.6941 0.2605 0.6941 0.2605 0.5276 0.2605 0.5276 0.1927 0.6018 0.1927 0.6941 0.4179 0.7515 0.3207 0.7698 0.3286 0.7837 0.3286 0.7837 0.4181 0.7671 0.4179 0.7515 0.607 0.5511 0.6642 0.6216 0.6642 0.4588 0.6642 0.4588 0.607 0.4588 0.607 0.5511 0.2605 0.6941 0.3225 0.6941 0.3225 0.5061 0.3225 0.5061 0.2605 0.5276 0.2605 0.6941 0.3207 0.7698 0.2664 0.8153 0.2797 0.8239 0.2797 0.8239 0.3286 0.7837 0.3207 0.7698 0.6642 0.6216 0.7246 0.6437 0.7246 0.4588 0.7246 0.4588 0.6642 0.4588 0.6642 0.6216 0.3225 0.6941 0.3915 0.6941 0.3915 0.5061 0.3915 0.5061 0.3225 0.5061 0.3225 0.6941 0.2664 0.8153 0.2451 0.8796 0.2606 0.8805 0.2606 0.8805 0.2797 0.8239 0.2664 0.8153 0.7246 0.6437 0.7797 0.6467 0.7797 0.4588 0.7797 0.4588 0.7246 0.4588 0.7246 0.6437 0.3327 0.4672 0.3937 0.4632 0.3937 0.4453 0.3937 0.4453 0.3327 0.4453 0.3327 0.4672 0.8639 0.7753 0.9291 0.7568 0.9212 0.7423 0.9212 0.7423 0.8637 0.7593 0.8639 0.7753 0.4966 0.7078 0.4372 0.7078 0.4372 0.7296 0.4372 0.7296 0.4966 0.7355 0.4966 0.7078 0.3327 0.4453 0.2693 0.4453 0.2693 0.4885 0.2693 0.4885 0.3327 0.4672 0.3327 0.4453 0.9291 0.7568 0.9764 0.7042 0.9628 0.6953 0.9628 0.6953 0.9212 0.7423 0.9291 0.7568 0.4966 0.7355 0.5559 0.756 0.5559 0.7078 0.5559 0.7078 0.4966 0.7078 0.4966 0.7355 0.2693 0.4453 0.2029 0.4453 0.2029 0.5376 0.2029 0.5376 0.2693 0.4885 0.2693 0.4453 0.9764 0.7042 0.9929 0.6231 0.9773 0.6233 0.9773 0.6233 0.9628 0.6953 0.9764 0.7042 0.5559 0.756 0.6166 0.8001 0.6166 0.7078 0.6166 0.7078 0.5559 0.7078 0.5559 0.756 0.2029 0.4453 0.1352 0.4453 0.1352 0.6117 0.1352 0.6117 0.2029 0.5376 0.2029 0.4453 0.9929 0.6231 0.9746 0.5258 0.9608 0.5338 0.9608 0.5338 0.9773 0.6233 0.9929 0.6231 0.6166 0.8001 0.6738 0.8706 0.6738 0.7078 0.6738 0.7078 0.6166 0.7078 0.6166 0.8001 0.1352 0.4453 0.07319998 0.4453 0.07319998 0.6332 0.07319998 0.6332 0.1352 0.6117 0.1352 0.4453 0.9746 0.5258 0.9291 0.4715 0.9205 0.4848 0.9205 0.4848 0.9608 0.5338 0.9746 0.5258 0.6738 0.8706 0.7342 0.8927 0.7342 0.7078 0.7342 0.7078 0.6738 0.7078 0.6738 0.8706 0.07319998 0.4453 0.004199981 0.4453 0.004199981 0.6332 0.004199981 0.6332 0.07319998 0.6332 0.07319998 0.4453 0.9291 0.4715 0.8649 0.4502 0.864 0.4658 0.864 0.4658 0.9205 0.4848 0.9291 0.4715 0.7342 0.8927 0.7893 0.8957 0.7893 0.7078 0.7893 0.7078 0.7342 0.7078 0.7342 0.8927 0.3452 0.7289 0.4062 0.7249 0.4062 0.707 0.4062 0.707 0.3452 0.707 0.3452 0.7289 0.9358 0.5647 0.8706 0.5832 0.8786 0.5977 0.8786 0.5977 0.936 0.5808 0.9358 0.5647 0.7175 0.6931 0.7769 0.6931 0.7769 0.6713 0.7769 0.6713 0.7175 0.6654 0.7175 0.6931 0.3452 0.707 0.2818 0.707 0.2818 0.7502 0.2818 0.7502 0.3452 0.7289 0.3452 0.707 0.8706 0.5832 0.8233 0.6358 0.8369 0.6448 0.8369 0.6448 0.8786 0.5977 0.8706 0.5832 0.7175 0.6654 0.6582 0.645 0.6582 0.6931 0.6582 0.6931 0.7175 0.6931 0.7175 0.6654 0.2818 0.707 0.2154999 0.707 0.2154999 0.7993 0.2154999 0.7993 0.2818 0.7502 0.2818 0.707 0.8233 0.6358 0.8068 0.717 0.8224 0.7168 0.8224 0.7168 0.8369 0.6448 0.8233 0.6358 0.6582 0.645 0.5975 0.6009 0.5975 0.6931 0.5975 0.6931 0.6582 0.6931 0.6582 0.645 0.2154999 0.707 0.1477 0.707 0.1477 0.8734 0.1477 0.8734 0.2154999 0.7993 0.2154999 0.707 0.8068 0.717 0.8251 0.8142 0.839 0.8062 0.839 0.8062 0.8224 0.7168 0.8068 0.717 0.5975 0.6009 0.5403 0.5303 0.5403 0.6931 0.5403 0.6931 0.5975 0.6931 0.5975 0.6009 0.1477 0.707 0.08569997 0.707 0.08569997 0.8949 0.08569997 0.8949 0.1477 0.8734 0.1477 0.707 0.8251 0.8142 0.8706 0.8685 0.8792 0.8552 0.8792 0.8552 0.839 0.8062 0.8251 0.8142 0.5403 0.5303 0.4799 0.5082 0.4799 0.6931 0.4799 0.6931 0.5403 0.6931 0.5403 0.5303 0.08569997 0.707 0.01669996 0.707 0.01669996 0.8949 0.01669996 0.8949 0.08569997 0.8949 0.08569997 0.707 0.8706 0.8685 0.9349 0.8898 0.9358 0.8742 0.9358 0.8742 0.8792 0.8552 0.8706 0.8685 0.4799 0.5082 0.4248 0.5053 0.4248 0.6931 0.4248 0.6931 0.4799 0.6931 0.4799 0.5082</float_array>
          <technique_common>
            <accessor source="#stop_light_001-mesh-map-0-array" count="780" stride="2">
              <param name="S" type="float"/>
              <param name="T" type="float"/>
            </accessor>
          </technique_common>
        </source>
        <vertices id="stop_light_001-mesh-vertices">
          <input semantic="POSITION" source="#stop_light_001-mesh-positions"/>
        </vertices>
        <triangles material="StopLight_003-material" count="260">
          <input semantic="VERTEX" source="#stop_light_001-mesh-vertices" offset="0"/>
          <input semantic="NORMAL" source="#stop_light_001-mesh-normals" offset="1"/>
          <input semantic="TEXCOORD" source="#stop_light_001-mesh-map-0" offset="2" set="0"/>
          <p>0 0 0 1 0 1 2 0 2 2 0 3 3 0 4 0 0 5 4 1 6 5 1 7 6 1 8 6 1 9 7 1 10 4 1 11 2 2 12 4 2 13 7 2 14 7 2 15 3 2 16 2 2 17 0 3 18 3 4 19 7 5 20 7 5 21 6 6 22 0 3 23 0 7 24 6 8 25 8 8 26 8 8 27 9 7 28 0 7 29 5 1 30 10 1 31 8 1 32 8 1 33 6 1 34 5 1 35 9 9 36 8 10 37 11 10 38 11 10 39 12 11 40 9 9 41 10 1 42 13 1 43 11 1 44 11 1 45 8 1 46 10 1 47 12 12 48 11 12 49 13 12 50 13 12 51 14 12 52 12 12 53 1 0 54 0 0 55 9 0 56 9 0 57 15 0 58 1 0 59 15 0 60 9 0 61 12 0 62 12 0 63 14 0 64 15 0 65 16 13 66 17 14 67 18 15 68 18 15 69 19 16 70 16 13 71 19 17 72 20 18 73 21 19 74 21 19 75 16 20 76 19 17 77 22 21 78 21 22 79 20 1 80 20 1 81 23 1 82 22 21 83 17 14 84 16 13 85 24 23 86 24 23 87 25 24 88 17 14 89 16 20 90 21 19 91 26 25 92 26 25 93 24 26 94 16 20 95 21 22 96 22 21 97 27 27 98 27 27 99 26 28 100 21 22 101 25 24 102 24 23 103 28 29 104 28 29 105 29 30 106 25 24 107 24 26 108 26 25 109 30 31 110 30 31 111 28 32 112 24 26 113 26 28 114 27 27 115 31 33 116 31 33 117 30 34 118 26 28 119 29 30 120 28 29 121 32 35 122 32 35 123 33 36 124 29 30 125 28 32 126 30 31 127 34 37 128 34 37 129 32 38 130 28 32 131 30 34 132 31 33 133 35 39 134 35 39 135 34 40 136 30 34 137 33 36 138 32 35 139 36 41 140 36 41 141 37 42 142 33 36 143 32 38 144 34 37 145 38 43 146 38 43 147 36 44 148 32 38 149 34 40 150 35 39 151 39 45 152 39 45 153 38 46 154 34 40 155 37 42 156 36 41 157 40 1 158 40 1 159 41 1 160 37 42 161 36 44 162 38 43 163 42 47 164 42 47 165 40 2 166 36 44 167 38 46 168 39 45 169 43 0 170 43 0 171 42 48 172 38 46 173 44 49 174 45 50 175 46 51 176 46 51 177 47 52 178 44 49 179 47 53 180 48 54 181 49 55 182 49 55 183 44 56 184 47 53 185 50 57 186 49 58 187 48 59 188 48 59 189 51 1 190 50 57 191 45 50 192 44 49 193 52 60 194 52 60 195 53 61 196 45 50 197 44 56 198 49 55 199 54 62 200 54 62 201 52 63 202 44 56 203 49 58 204 50 57 205 55 64 206 55 64 207 54 65 208 49 58 209 53 61 210 52 60 211 56 66 212 56 66 213 57 67 214 53 61 215 52 63 216 54 62 217 58 68 218 58 68 219 56 69 220 52 63 221 54 65 222 55 64 223 59 70 224 59 70 225 58 71 226 54 65 227 57 67 228 56 66 229 60 72 230 60 72 231 61 73 232 57 67 233 56 69 234 58 68 235 62 74 236 62 74 237 60 75 238 56 69 239 58 71 240 59 70 241 63 76 242 63 76 243 62 77 244 58 71 245 61 73 246 60 72 247 64 78 248 64 78 249 65 79 250 61 73 251 60 75 252 62 74 253 66 80 254 66 80 255 64 81 256 60 75 257 62 77 258 63 76 259 67 82 260 67 82 261 66 83 262 62 77 263 65 79 264 64 78 265 68 1 266 68 1 267 69 1 268 65 79 269 64 81 270 66 80 271 70 84 272 70 84 273 68 2 274 64 81 275 66 83 276 67 82 277 71 85 278 71 85 279 70 86 280 66 83 281 72 87 282 73 88 283 74 89 284 74 89 285 75 90 286 72 87 287 75 91 288 76 54 289 77 92 290 77 92 291 72 93 292 75 91 293 78 94 294 77 58 295 76 1 296 76 1 297 79 1 298 78 94 299 73 88 300 72 87 301 80 95 302 80 95 303 81 96 304 73 88 305 72 93 306 77 92 307 82 97 308 82 97 309 80 98 310 72 93 311 77 58 312 78 94 313 83 64 314 83 64 315 82 99 316 77 58 317 81 96 318 80 95 319 84 100 320 84 100 321 85 101 322 81 96 323 80 98 324 82 97 325 86 102 326 86 102 327 84 103 328 80 98 329 82 99 330 83 64 331 87 104 332 87 104 333 86 105 334 82 99 335 85 101 336 84 100 337 88 106 338 88 106 339 89 73 340 85 101 341 84 103 342 86 102 343 90 107 344 90 107 345 88 108 346 84 103 347 86 105 348 87 104 349 91 109 350 91 109 351 90 110 352 86 105 353 89 73 354 88 106 355 92 111 356 92 111 357 93 112 358 89 73 359 88 108 360 90 107 361 94 113 362 94 113 363 92 114 364 88 108 365 90 110 366 91 109 367 95 115 368 95 115 369 94 116 370 90 110 371 93 112 372 92 111 373 96 1 374 96 1 375 97 1 376 93 112 377 92 114 378 94 113 379 98 117 380 98 117 381 96 2 382 92 114 383 94 116 384 95 115 385 99 118 386 99 118 387 98 119 388 94 116 389 100 0 390 101 0 391 2 0 392 2 0 393 1 0 394 100 0 395 4 1 396 102 1 397 103 1 398 103 1 399 5 1 400 4 1 401 2 2 402 101 2 403 102 2 404 102 2 405 4 2 406 2 2 407 100 120 408 103 121 409 102 122 410 102 122 411 101 123 412 100 120 413 100 124 414 104 124 415 105 125 416 105 125 417 103 125 418 100 124 419 5 1 420 103 1 421 105 1 422 105 1 423 10 1 424 5 1 425 104 126 426 106 127 427 107 128 428 107 128 429 105 128 430 104 126 431 10 1 432 105 1 433 107 1 434 107 1 435 13 1 436 10 1 437 106 12 438 14 12 439 13 12 440 13 12 441 107 12 442 106 12 443 1 0 444 15 0 445 104 0 446 104 0 447 100 0 448 1 0 449 15 0 450 14 0 451 106 0 452 106 0 453 104 0 454 15 0 455 108 129 456 19 16 457 18 15 458 18 15 459 109 130 460 108 129 461 19 17 462 108 131 463 110 132 464 110 132 465 20 18 466 19 17 467 111 133 468 23 1 469 20 1 470 20 1 471 110 134 472 111 133 473 109 130 474 112 135 475 113 136 476 113 136 477 108 129 478 109 130 479 108 131 480 113 137 481 114 138 482 114 138 483 110 132 484 108 131 485 110 134 486 114 139 487 115 140 488 115 140 489 111 133 490 110 134 491 112 135 492 116 141 493 117 142 494 117 142 495 113 136 496 112 135 497 113 137 498 117 143 499 118 144 500 118 144 501 114 138 502 113 137 503 114 139 504 118 145 505 119 146 506 119 146 507 115 140 508 114 139 509 116 141 510 120 147 511 121 148 512 121 148 513 117 142 514 116 141 515 117 143 516 121 149 517 122 150 518 122 150 519 118 144 520 117 143 521 118 145 522 122 151 523 123 152 524 123 152 525 119 146 526 118 145 527 120 147 528 124 153 529 125 154 530 125 154 531 121 148 532 120 147 533 121 149 534 125 155 535 126 156 536 126 156 537 122 150 538 121 149 539 122 151 540 126 157 541 127 158 542 127 158 543 123 152 544 122 151 545 124 153 546 41 1 547 40 1 548 40 1 549 125 154 550 124 153 551 125 155 552 40 2 553 42 47 554 42 47 555 126 156 556 125 155 557 126 157 558 42 48 559 43 0 560 43 0 561 127 158 562 126 157 563 128 159 564 47 52 565 46 51 566 46 51 567 129 160 568 128 159 569 47 53 570 128 161 571 130 162 572 130 162 573 48 54 574 47 53 575 131 163 576 51 1 577 48 59 578 48 59 579 130 164 580 131 163 581 129 160 582 132 165 583 133 166 584 133 166 585 128 159 586 129 160 587 128 161 588 133 167 589 134 168 590 134 168 591 130 162 592 128 161 593 130 164 594 134 169 595 135 170 596 135 170 597 131 163 598 130 164 599 132 165 600 136 171 601 137 172 602 137 172 603 133 166 604 132 165 605 133 167 606 137 173 607 138 174 608 138 174 609 134 168 610 133 167 611 134 169 612 138 175 613 139 176 614 139 176 615 135 170 616 134 169 617 136 171 618 140 177 619 141 148 620 141 148 621 137 172 622 136 171 623 137 173 624 141 178 625 142 179 626 142 179 627 138 174 628 137 173 629 138 175 630 142 180 631 143 181 632 143 181 633 139 176 634 138 175 635 140 177 636 144 182 637 145 183 638 145 183 639 141 148 640 140 177 641 141 178 642 145 184 643 146 185 644 146 185 645 142 179 646 141 178 647 142 180 648 146 186 649 147 187 650 147 187 651 143 181 652 142 180 653 144 182 654 69 1 655 68 1 656 68 1 657 145 183 658 144 182 659 145 184 660 68 2 661 70 84 662 70 84 663 146 185 664 145 184 665 146 186 666 70 86 667 71 85 668 71 85 669 147 187 670 146 186 671 148 188 672 75 90 673 74 89 674 74 89 675 149 189 676 148 188 677 75 91 678 148 190 679 150 191 680 150 191 681 76 54 682 75 91 683 151 192 684 79 1 685 76 1 686 76 1 687 150 164 688 151 192 689 149 189 690 152 193 691 153 194 692 153 194 693 148 188 694 149 189 695 148 190 696 153 195 697 154 196 698 154 196 699 150 191 700 148 190 701 150 164 702 154 197 703 155 198 704 155 198 705 151 192 706 150 164 707 152 193 708 156 199 709 157 200 710 157 200 711 153 194 712 152 193 713 153 195 714 157 201 715 158 202 716 158 202 717 154 196 718 153 195 719 154 197 720 158 203 721 159 204 722 159 204 723 155 198 724 154 197 725 156 199 726 160 205 727 161 206 728 161 206 729 157 200 730 156 199 731 157 201 732 161 207 733 162 208 734 162 208 735 158 202 736 157 201 737 158 203 738 162 209 739 163 210 740 163 210 741 159 204 742 158 203 743 160 205 744 164 211 745 165 212 746 165 212 747 161 206 748 160 205 749 161 207 750 165 213 751 166 214 752 166 214 753 162 208 754 161 207 755 162 209 756 166 215 757 167 187 758 167 187 759 163 210 760 162 209 761 164 211 762 97 1 763 96 1 764 96 1 765 165 212 766 164 211 767 165 213 768 96 2 769 98 117 770 98 117 771 166 214 772 165 213 773 166 215 774 98 119 775 99 118 776 99 118 777 167 187 778 166 215 779</p>
        </triangles>
      </mesh>
    </geometry>
  </library_geometries>
  <library_visual_scenes>
    <visual_scene id="Scene" name="Scene">
      <node id="stop_light" name="stop_light" type="NODE">
        <matrix sid="transform">0.009 0 0 0 0 0.009 0 0 0 0 0.009 0 0 0 0 1</matrix>
        <instance_geometry url="#stop_light_001-mesh" name="stop_light">
          <bind_material>
            <technique_common>
              <instance_material symbol="StopLight_003-material" target="#StopLight_003-material">
                <bind_vertex_input semantic="UVMap" input_semantic="TEXCOORD" input_set="0"/>
              </instance_material>
            </technique_common>
          </bind_material>
        </instance_geometry>
      </node>
    </visual_scene>
  </library_visual_scenes>
  <scene>
    <instance_visual_scene url="#Scene"/>
  </scene>
</COLLADA>