<?xml version="1.0" encoding="utf-8"?>
<COLLADA xmlns="http://www.collada.org/2005/11/COLLADASchema" version="1.4.1" xmlns:xsi="http://www.w3.org/2001/XMLSchema-instance">
  <asset>
    <contributor>
      <author>Blender User</author>
      <authoring_tool>Blender 4.3.2 commit date:2024-12-16, commit time:21:10, hash:32f5fdce0a0a</authoring_tool>
    </contributor>
    <created>2025-07-09T14:21:52</created>
    <modified>2025-07-09T14:21:52</modified>
    <unit name="meter" meter="1"/>
    <up_axis>Z_UP</up_axis>
  </asset>
  <library_effects>
    <effect id="StopLight_002-effect">
      <profile_COMMON>
        <newparam sid="Untitled-surface">
          <surface type="2D">
            <init_from>Untitled</init_from>
          </surface>
        </newparam>
        <newparam sid="Untitled-sampler">
          <sampler2D>
            <source>Untitled-surface</source>
          </sampler2D>
        </newparam>
        <technique sid="common">
          <lambert>
            <emission>
              <color sid="emission">0 0 0 1</color>
            </emission>
            <diffuse>
              <texture texture="Untitled-sampler" texcoord="UVMap"/>
            </diffuse>
            <index_of_refraction>
              <float sid="ior">1.5</float>
            </index_of_refraction>
          </lambert>
        </technique>
      </profile_COMMON>
    </effect>
  </library_effects>
  <library_images>
    <image id="Untitled" name="Untitled">
      <init_from>Untitled.png</init_from>
    </image>
  </library_images>
  <library_materials>
    <material id="StopLight_002-material" name="StopLight.002">
      <instance_effect url="#StopLight_002-effect"/>
    </material>
  </library_materials>
  <library_geometries>
    <geometry id="stop_light_post-mesh" name="stop_light_post">
      <mesh>
        <source id="stop_light_post-mesh-positions">
          <float_array id="stop_light_post-mesh-positions-array" count="162">2.9156 -6.946 511.9969 2.9156 -6.9459 1.7198 6.9259 10e-5 1.7198 6.9259 0 512.2925 -5.1048 -6.946 511.4055 -5.1048 -6.9459 1.7198 -9.1151 0 511.1098 -9.1151 10e-5 1.7198 -5.1048 6.9459 511.4055 -5.1048 6.946 1.7198 2.9156 6.9459 511.9969 2.9156 6.946 1.7198 -1.2813 -6.946 540.3015 2.6141 -10e-5 541.3719 -9.072 -6.946 538.1607 -12.9674 0 537.0903 -9.072 6.9459 538.1607 -1.2813 6.9459 540.3015 -11.7051 -6.946 565.7231 -8.392201 -10e-5 568.2139 -18.331 -6.946 560.7416 -21.644 -10e-5 558.2509 -18.331 6.9459 560.7416 -11.7051 6.9459 565.7231 -34.7008 -6.946 583.9647 -33.0234 -10e-5 587.7528 -38.0556 -6.946 576.3884 -39.733 -10e-5 572.6002 -38.0556 6.9459 576.3884 -34.7008 6.9459 583.9647 -74.6887 -6.946 590.545 -74.3609 -10e-5 594.5553 -75.3442 -6.946 582.5245 -75.672 -10e-5 578.5143 -75.3442 6.9459 582.5245 -74.6887 6.9459 590.545 -473.535 -10e-5 594.5553 -473.535 -6.946 590.545 -473.535 -6.946 582.5245 -473.535 -10e-5 578.5143 -473.535 6.9459 582.5245 -473.535 6.9459 590.545 -487.504 -6.946 582.5245 -487.504 -6.946 590.545 -487.504 -10e-5 594.5553 -487.504 6.9459 582.5245 -487.504 -10e-5 578.5143 -487.504 6.9459 590.545 -480.4165 -10e-5 600.9959 -480.4166 -12.5238 593.7654 -480.4166 -12.5238 579.3042 -480.4166 -10e-5 572.0737 -480.4166 12.5237 579.3042 -480.4166 12.5237 593.7654</float_array>
          <technique_common>
            <accessor source="#stop_light_post-mesh-positions-array" count="54" stride="3">
              <param name="X" type="float"/>
              <param name="Y" type="float"/>
              <param name="Z" type="float"/>
            </accessor>
          </technique_common>
        </source>
        <source id="stop_light_post-mesh-normals">
          <float_array id="stop_light_post-mesh-normals-array" count="216">0.5152503 -0.8561973 0.03799206 0.4999966 -0.8660274 -1.69913e-7 1 7.66774e-7 0 0.9972928 1.42506e-5 0.07353377 -0.4802219 -0.8764322 -0.03540796 -0.5000008 -0.866025 -1.70009e-7 -0.9972926 -2.36108e-7 -0.07353544 -1 5.69603e-6 0 -0.480229 0.8764282 -0.03540974 -0.4999939 0.8660289 1.6985e-7 0.5152353 0.8562064 0.03799146 0.4999985 0.8660263 1.69748e-7 0.5075615 -0.8502527 0.1394701 0.9642584 -2.74332e-6 0.2649639 -0.451942 -0.8833611 -0.1241851 -0.9642583 2.31611e-6 -0.2649639 -0.4519382 0.8833624 -0.124189 0.507564 0.8502508 0.1394715 0.4393729 -0.8353692 0.3303178 0.7993059 -2.33269e-6 0.6009246 -0.3423993 -0.9036054 -0.2574104 -0.7993092 -4.01552e-6 -0.6009202 -0.3423982 0.9036037 -0.2574179 0.4393741 0.835367 0.330322 0.222459 -0.8355385 0.5023819 0.4048883 -3.82186e-6 0.9143663 -0.1736723 -0.9033393 -0.3921938 -0.4048887 -1.46411e-7 -0.914366 -0.1736662 0.9033356 -0.3922051 0.2224589 0.8355373 0.5023838 0.04222226 -0.8551854 0.5165999 0.08145779 -1.16787e-5 0.9966768 -0.03905332 -0.8775785 -0.4778398 -0.08145731 -5.30249e-6 -0.9966769 -0.03905218 0.8775801 -0.477837 0.0422222 0.8551789 0.5166106 0 -6.04656e-6 1 0 -0.8660295 0.499993 0 -0.8660232 -0.5000039 0 -3.06707e-7 -1 0 0.8660247 -0.5000014 0 0.8660249 0.5000009 -1 -1.09558e-6 0 -1 -4.38235e-6 0 -1 -2.19117e-6 0 -1 -3.28673e-6 0 -1 -2.19116e-6 0 -1 0 0 0.683329 -1.79293e-5 0.7301107 0.6833316 -0.6323 0.3650407 0.6833291 -0.6322987 0.3650477 0.6833285 -1.13394e-5 0.7301111 0.6833284 -0.6322872 -0.3650689 0.6833289 -0.6322906 -0.365062 0.6833224 1.32186e-5 -0.7301168 0.6833261 1.87025e-6 -0.7301133 0.6833271 0.6323018 -0.3650459 0.6833271 0.6322953 -0.3650571 0.6833314 0.6322845 0.3650678 0.6833311 0.6322917 0.3650559 -0.6725269 3.81027e-6 0.7400727 -0.6725372 -0.6409142 0.3700307 -0.6725338 -0.6409068 0.3700498 -0.6725243 1.52166e-5 0.7400751 -0.6725311 -0.6409192 -0.3700332 -0.6725302 -0.6409263 -0.3700225 -0.6725308 -5.80857e-6 -0.7400692 -0.6725281 -1.59028e-5 -0.7400717 -0.6725322 0.6409116 -0.3700444 -0.672533 0.6409084 -0.3700484 -0.6725319 0.6409196 0.3700311 -0.6725337 0.6409217 0.3700242</float_array>
          <technique_common>
            <accessor source="#stop_light_post-mesh-normals-array" count="72" stride="3">
              <param name="X" type="float"/>
              <param name="Y" type="float"/>
              <param name="Z" type="float"/>
            </accessor>
          </technique_common>
        </source>
        <source id="stop_light_post-mesh-map-0">
          <float_array id="stop_light_post-mesh-map-0-array" count="600">2.1735 0.9688 4e-4 0.9688 4e-4 0.9998 4e-4 0.9998 2.1735 0.9998 2.1735 0.9688 2.1735 0.9378 4e-4 0.9378 4e-4 0.9688 4e-4 0.9688 2.1735 0.9688 2.1735 0.9378 2.1735 0.9067 4e-4 0.9067 4e-4 0.9378 4e-4 0.9378 2.1735 0.9378 2.1735 0.9067 2.1735 0.9377 4e-4 0.9377 4e-4 0.9066 4e-4 0.9066 2.1735 0.9066 2.1735 0.9377 2.1735 0.9687 4e-4 0.9687 4e-4 0.9377 4e-4 0.9377 2.1735 0.9377 2.1735 0.9687 2.1735 0.9997 4e-4 0.9997 4e-4 0.9687 4e-4 0.9687 2.1735 0.9687 2.1735 0.9997 2.2921 0.9688 2.1735 0.9688 2.1735 0.9998 2.1735 0.9998 2.2921 0.9998 2.2921 0.9688 2.2921 0.9378 2.1735 0.9378 2.1735 0.9688 2.1735 0.9688 2.2921 0.9688 2.2921 0.9378 2.2921 0.9067 2.1735 0.9067 2.1735 0.9378 2.1735 0.9378 2.2921 0.9378 2.2921 0.9067 2.2921 0.9377 2.1735 0.9377 2.1735 0.9066 2.1735 0.9066 2.2921 0.9066 2.2921 0.9377 2.2921 0.9687 2.1735 0.9687 2.1735 0.9377 2.1735 0.9377 2.2921 0.9377 2.2921 0.9687 2.2921 0.9997 2.1735 0.9997 2.1735 0.9687 2.1735 0.9687 2.2921 0.9687 2.2921 0.9997 2.4026 0.9688 2.2921 0.9688 2.2921 0.9998 2.2921 0.9998 2.4026 0.9998 2.4026 0.9688 2.4026 0.9378 2.2921 0.9378 2.2921 0.9688 2.2921 0.9688 2.4026 0.9688 2.4026 0.9378 2.4026 0.9067 2.2921 0.9067 2.2921 0.9378 2.2921 0.9378 2.4026 0.9378 2.4026 0.9067 2.4026 0.9377 2.2921 0.9377 2.2921 0.9066 2.2921 0.9066 2.4026 0.9066 2.4026 0.9377 2.4026 0.9687 2.2921 0.9687 2.2921 0.9377 2.2921 0.9377 2.4026 0.9377 2.4026 0.9687 2.4026 0.9997 2.2921 0.9997 2.2921 0.9687 2.2921 0.9687 2.4026 0.9687 2.4026 0.9997 2.5188 0.9688 2.4026 0.9688 2.4026 0.9998 2.4026 0.9998 2.5188 0.9998 2.5188 0.9688 2.5188 0.9378 2.4026 0.9378 2.4026 0.9688 2.4026 0.9688 2.5188 0.9688 2.5188 0.9378 2.5188 0.9067 2.4026 0.9067 2.4026 0.9378 2.4026 0.9378 2.5188 0.9378 2.5188 0.9067 2.5188 0.9377 2.4026 0.9377 2.4026 0.9066 2.4026 0.9066 2.5188 0.9066 2.5188 0.9377 2.5188 0.9687 2.4026 0.9687 2.4026 0.9377 2.4026 0.9377 2.5188 0.9377 2.5188 0.9687 2.5188 0.9997 2.4026 0.9997 2.4026 0.9687 2.4026 0.9687 2.5188 0.9687 2.5188 0.9997 2.6857 0.9688 2.5188 0.9688 2.5188 0.9998 2.5188 0.9998 2.6857 0.9998 2.6857 0.9688 2.6857 0.9378 2.5188 0.9378 2.5188 0.9688 2.5188 0.9688 2.6857 0.9688 2.6857 0.9378 2.6857 0.9067 2.5188 0.9067 2.5188 0.9378 2.5188 0.9378 2.6857 0.9378 2.6857 0.9067 2.6857 0.9377 2.5188 0.9377 2.5188 0.9066 2.5188 0.9066 2.6857 0.9066 2.6857 0.9377 2.6857 0.9687 2.5188 0.9687 2.5188 0.9377 2.5188 0.9377 2.6857 0.9377 2.6857 0.9687 2.6857 0.9997 2.5188 0.9997 2.5188 0.9687 2.5188 0.9687 2.6857 0.9687 2.6857 0.9997 4.3839 0.9998 4.3839 0.9688 2.6857 0.9688 2.6857 0.9688 2.6857 0.9998 4.3839 0.9998 4.3839 0.9688 4.3838 0.9378 2.6857 0.9378 2.6857 0.9378 2.6857 0.9688 4.3839 0.9688 4.3838 0.9378 4.3837 0.9067 2.6857 0.9067 2.6857 0.9067 2.6857 0.9378 4.3838 0.9378 4.3837 0.9066 4.3838 0.9377 2.6857 0.9377 2.6857 0.9377 2.6857 0.9066 4.3837 0.9066 4.3838 0.9377 4.3839 0.9687 2.6857 0.9687 2.6857 0.9687 2.6857 0.9377 4.3838 0.9377 4.3839 0.9687 4.3839 0.9997 2.6857 0.9997 2.6857 0.9997 2.6857 0.9687 4.3839 0.9687 4e-4 0.9998 4e-4 0.9998 4e-4 0.9998 4e-4 0.9998 4e-4 0.9998 4e-4 0.9998 4e-4 0.9998 4e-4 0.9998 4e-4 0.9998 4e-4 0.9998 4e-4 0.9998 4e-4 0.9998 4.4132 0.9998 4.4132 0.9688 4.3839 0.9688 4.3839 0.9688 4.3839 0.9998 4.4132 0.9998 4.4132 0.9688 4.4131 0.9378 4.3838 0.9378 4.3838 0.9378 4.3839 0.9688 4.4132 0.9688 4.4131 0.9378 4.4131 0.9067 4.3837 0.9067 4.3837 0.9067 4.3838 0.9378 4.4131 0.9378 4.4131 0.9066 4.4131 0.9377 4.3838 0.9377 4.3838 0.9377 4.3837 0.9066 4.4131 0.9066 4.4131 0.9377 4.4132 0.9687 4.3839 0.9687 4.3839 0.9687 4.3838 0.9377 4.4131 0.9377 4.4132 0.9687 4.4132 0.9997 4.3839 0.9997 4.3839 0.9997 4.3839 0.9687 4.4132 0.9687 4.4433 0.9998 4.4433 0.9688 4.4132 0.9688 4.4132 0.9688 4.4132 0.9998 4.4433 0.9998 4.4433 0.9688 4.4433 0.9378 4.4131 0.9378 4.4131 0.9378 4.4132 0.9688 4.4433 0.9688 4.4433 0.9378 4.4433 0.9067 4.4131 0.9067 4.4131 0.9067 4.4131 0.9378 4.4433 0.9378 4.4433 0.9066 4.4433 0.9377 4.4131 0.9377 4.4131 0.9377 4.4131 0.9066 4.4433 0.9066 4.4433 0.9377 4.4433 0.9687 4.4132 0.9687 4.4132 0.9687 4.4131 0.9377 4.4433 0.9377 4.4433 0.9687 4.4433 0.9997 4.4132 0.9997 4.4132 0.9997 4.4132 0.9687 4.4433 0.9687</float_array>
          <technique_common>
            <accessor source="#stop_light_post-mesh-map-0-array" count="300" stride="2">
              <param name="S" type="float"/>
              <param name="T" type="float"/>
            </accessor>
          </technique_common>
        </source>
        <vertices id="stop_light_post-mesh-vertices">
          <input semantic="POSITION" source="#stop_light_post-mesh-positions"/>
        </vertices>
        <triangles material="StopLight_002-material" count="100">
          <input semantic="VERTEX" source="#stop_light_post-mesh-vertices" offset="0"/>
          <input semantic="NORMAL" source="#stop_light_post-mesh-normals" offset="1"/>
          <input semantic="TEXCOORD" source="#stop_light_post-mesh-map-0" offset="2" set="0"/>
          <p>0 0 0 1 1 1 2 2 2 2 2 3 3 3 4 0 0 5 4 4 6 5 5 7 1 1 8 1 1 9 0 0 10 4 4 11 6 6 12 7 7 13 5 5 14 5 5 15 4 4 16 6 6 17 8 8 18 9 9 19 7 7 20 7 7 21 6 6 22 8 8 23 10 10 24 11 11 25 9 9 26 9 9 27 8 8 28 10 10 29 3 3 30 2 2 31 11 11 32 11 11 33 10 10 34 3 3 35 12 12 36 0 0 37 3 3 38 3 3 39 13 13 40 12 12 41 14 14 42 4 4 43 0 0 44 0 0 45 12 12 46 14 14 47 15 15 48 6 6 49 4 4 50 4 4 51 14 14 52 15 15 53 16 16 54 8 8 55 6 6 56 6 6 57 15 15 58 16 16 59 17 17 60 10 10 61 8 8 62 8 8 63 16 16 64 17 17 65 13 13 66 3 3 67 10 10 68 10 10 69 17 17 70 13 13 71 18 18 72 12 12 73 13 13 74 13 13 75 19 19 76 18 18 77 20 20 78 14 14 79 12 12 80 12 12 81 18 18 82 20 20 83 21 21 84 15 15 85 14 14 86 14 14 87 20 20 88 21 21 89 22 22 90 16 16 91 15 15 92 15 15 93 21 21 94 22 22 95 23 23 96 17 17 97 16 16 98 16 16 99 22 22 100 23 23 101 19 19 102 13 13 103 17 17 104 17 17 105 23 23 106 19 19 107 24 24 108 18 18 109 19 19 110 19 19 111 25 25 112 24 24 113 26 26 114 20 20 115 18 18 116 18 18 117 24 24 118 26 26 119 27 27 120 21 21 121 20 20 122 20 20 123 26 26 124 27 27 125 28 28 126 22 22 127 21 21 128 21 21 129 27 27 130 28 28 131 29 29 132 23 23 133 22 22 134 22 22 135 28 28 136 29 29 137 25 25 138 19 19 139 23 23 140 23 23 141 29 29 142 25 25 143 30 30 144 24 24 145 25 25 146 25 25 147 31 31 148 30 30 149 32 32 150 26 26 151 24 24 152 24 24 153 30 30 154 32 32 155 33 33 156 27 27 157 26 26 158 26 26 159 32 32 160 33 33 161 34 34 162 28 28 163 27 27 164 27 27 165 33 33 166 34 34 167 35 35 168 29 29 169 28 28 170 28 28 171 34 34 172 35 35 173 31 31 174 25 25 175 29 29 176 29 29 177 35 35 178 31 31 179 36 36 180 37 37 181 30 30 182 30 30 183 31 31 184 36 36 185 37 37 186 38 38 187 32 32 188 32 32 189 30 30 190 37 37 191 38 38 192 39 39 193 33 33 194 33 33 195 32 32 196 38 38 197 39 39 198 40 40 199 34 34 200 34 34 201 33 33 202 39 39 203 40 40 204 41 41 205 35 35 206 35 35 207 34 34 208 40 40 209 41 41 210 36 36 211 31 31 212 31 31 213 35 35 214 41 41 215 42 42 216 43 43 217 44 44 218 44 44 219 45 45 220 46 46 221 46 46 222 42 42 223 44 44 224 47 47 225 45 45 226 44 44 227 48 48 228 49 49 229 37 50 230 37 50 231 36 51 232 48 48 233 49 49 234 50 52 235 38 53 236 38 53 237 37 50 238 49 49 239 50 52 240 51 54 241 39 55 242 39 55 243 38 53 244 50 52 245 51 54 246 52 56 247 40 57 248 40 57 249 39 55 250 51 54 251 52 56 252 53 58 253 41 59 254 41 59 255 40 57 256 52 56 257 53 58 258 48 48 259 36 51 260 36 51 261 41 59 262 53 58 263 44 60 264 43 61 265 49 62 266 49 62 267 48 63 268 44 60 269 43 61 270 42 64 271 50 65 272 50 65 273 49 62 274 43 61 275 42 64 276 46 66 277 51 67 278 51 67 279 50 65 280 42 64 281 46 66 282 45 68 283 52 69 284 52 69 285 51 67 286 46 66 287 45 68 288 47 70 289 53 71 290 53 71 291 52 69 292 45 68 293 47 70 294 44 60 295 48 63 296 48 63 297 53 71 298 47 70 299</p>
        </triangles>
      </mesh>
    </geometry>
  </library_geometries>
  <library_visual_scenes>
    <visual_scene id="Scene" name="Scene">
      <node id="stop_light_post" name="stop_light_post" type="NODE">
        <matrix sid="transform">0.009 0 0 0 0 0.009 0 0 0 0 0.009 0 0 0 0 1</matrix>
        <instance_geometry url="#stop_light_post-mesh" name="stop_light_post">
          <bind_material>
            <technique_common>
              <instance_material symbol="StopLight_002-material" target="#StopLight_002-material">
                <bind_vertex_input semantic="UVMap" input_semantic="TEXCOORD" input_set="0"/>
              </instance_material>
            </technique_common>
          </bind_material>
        </instance_geometry>
      </node>
    </visual_scene>
  </library_visual_scenes>
  <scene>
    <instance_visual_scene url="#Scene"/>
  </scene>
</COLLADA>